<?xml version="1.0" encoding="UTF-8" standalone="no"?>
<!-- Created with Inkscape (http://www.inkscape.org/) -->

<svg
   xmlns:dc="http://purl.org/dc/elements/1.1/"
   xmlns:cc="http://creativecommons.org/ns#"
   xmlns:rdf="http://www.w3.org/1999/02/22-rdf-syntax-ns#"
   xmlns:svg="http://www.w3.org/2000/svg"
   xmlns="http://www.w3.org/2000/svg"
   xmlns:sodipodi="http://sodipodi.sourceforge.net/DTD/sodipodi-0.dtd"
   xmlns:inkscape="http://www.inkscape.org/namespaces/inkscape"
   width="210mm"
   height="297mm"
   viewBox="0 0 210 297"
   version="1.1"
   id="svg8"
   sodipodi:docname="drawing_v02.svg"
   inkscape:version="0.92.4 (5da689c313, 2019-01-14)">
  <defs
     id="defs2">
    <inkscape:path-effect
       is_visible="true"
       id="path-effect2070"
       effect="spiro" />
    <inkscape:path-effect
       effect="spiro"
       id="path-effect2066"
       is_visible="true" />
    <inkscape:path-effect
       effect="powerstroke"
       id="path-effect2050"
       is_visible="true"
       offset_points="7,0.13229166"
       sort_points="true"
       interpolator_type="CubicBezierJohan"
       interpolator_beta="0.2"
       start_linecap_type="zerowidth"
       linejoin_type="extrp_arc"
       miter_limit="4"
       end_linecap_type="zerowidth" />
    <inkscape:path-effect
       effect="powerstroke"
       id="path-effect2046"
       is_visible="true"
       offset_points="12,0.13229166"
       sort_points="true"
       interpolator_type="CubicBezierJohan"
       interpolator_beta="0.2"
       start_linecap_type="zerowidth"
       linejoin_type="extrp_arc"
       miter_limit="4"
       end_linecap_type="zerowidth" />
    <inkscape:path-effect
       is_visible="true"
       id="path-effect1952"
       effect="spiro" />
    <inkscape:path-effect
       effect="spiro"
       id="path-effect1948"
       is_visible="true" />
    <inkscape:path-effect
       effect="spiro"
       id="path-effect1935"
       is_visible="true" />
    <inkscape:path-effect
       is_visible="true"
       id="path-effect1931"
       effect="spiro" />
    <inkscape:path-effect
       effect="spiro"
       id="path-effect1910"
       is_visible="true" />
    <inkscape:path-effect
       effect="spiro"
       id="path-effect1897"
       is_visible="true" />
    <inkscape:path-effect
       effect="spiro"
       id="path-effect1869"
       is_visible="true" />
    <inkscape:path-effect
       is_visible="true"
       id="path-effect1865"
       effect="spiro" />
    <inkscape:path-effect
       effect="spiro"
       id="path-effect1838"
       is_visible="true" />
    <inkscape:path-effect
       effect="spiro"
       id="path-effect1825"
       is_visible="true" />
    <inkscape:path-effect
       effect="spiro"
       id="path-effect1821"
       is_visible="true" />
    <inkscape:path-effect
       effect="spiro"
       id="path-effect1817"
       is_visible="true" />
    <inkscape:path-effect
       effect="spiro"
       id="path-effect1809"
       is_visible="true" />
    <inkscape:path-effect
       effect="spiro"
       id="path-effect1805"
       is_visible="true" />
    <inkscape:path-effect
       effect="spiro"
       id="path-effect1801"
       is_visible="true" />
    <inkscape:path-effect
       effect="spiro"
       id="path-effect1786"
       is_visible="true" />
    <inkscape:path-effect
       effect="spiro"
       id="path-effect1782"
       is_visible="true" />
    <inkscape:path-effect
       effect="spiro"
       id="path-effect1778"
       is_visible="true" />
    <inkscape:path-effect
       effect="spiro"
       id="path-effect1774"
       is_visible="true" />
    <inkscape:path-effect
       effect="spiro"
       id="path-effect1770"
       is_visible="true" />
    <inkscape:path-effect
       effect="spiro"
       id="path-effect1762"
       is_visible="true" />
    <inkscape:path-effect
       effect="spiro"
       id="path-effect1758"
       is_visible="true" />
    <inkscape:path-effect
       effect="spiro"
       id="path-effect1754"
       is_visible="true" />
    <inkscape:path-effect
       effect="spiro"
       id="path-effect1750"
       is_visible="true" />
    <inkscape:path-effect
       effect="spiro"
       id="path-effect1746"
       is_visible="true" />
    <inkscape:path-effect
       effect="spiro"
       id="path-effect1742"
       is_visible="true" />
    <inkscape:path-effect
       effect="spiro"
       id="path-effect1738"
       is_visible="true" />
    <inkscape:path-effect
       effect="spiro"
       id="path-effect1734"
       is_visible="true" />
    <inkscape:path-effect
       effect="spiro"
       id="path-effect1730"
       is_visible="true" />
    <inkscape:path-effect
       effect="spiro"
       id="path-effect1726"
       is_visible="true" />
    <inkscape:path-effect
       effect="spiro"
       id="path-effect1722"
       is_visible="true" />
    <inkscape:path-effect
       effect="spiro"
       id="path-effect1709"
       is_visible="true" />
    <inkscape:path-effect
       effect="spiro"
       id="path-effect1705"
       is_visible="true" />
    <inkscape:path-effect
       effect="spiro"
       id="path-effect1692"
       is_visible="true" />
    <inkscape:path-effect
       effect="spiro"
       id="path-effect1688"
       is_visible="true" />
    <inkscape:path-effect
       effect="spiro"
       id="path-effect1684"
       is_visible="true" />
    <inkscape:path-effect
       effect="spiro"
       id="path-effect1680"
       is_visible="true" />
    <inkscape:path-effect
       effect="spiro"
       id="path-effect1676"
       is_visible="true" />
    <inkscape:path-effect
       effect="spiro"
       id="path-effect1672"
       is_visible="true" />
    <inkscape:path-effect
       effect="spiro"
       id="path-effect1658"
       is_visible="true" />
    <inkscape:path-effect
       effect="spiro"
       id="path-effect1654"
       is_visible="true" />
    <inkscape:path-effect
       effect="spiro"
       id="path-effect1650"
       is_visible="true" />
    <inkscape:path-effect
       effect="spiro"
       id="path-effect1646"
       is_visible="true" />
    <inkscape:path-effect
       effect="spiro"
       id="path-effect1642"
       is_visible="true" />
    <inkscape:path-effect
       effect="spiro"
       id="path-effect1638"
       is_visible="true" />
    <inkscape:path-effect
       effect="spiro"
       id="path-effect1634"
       is_visible="true" />
    <inkscape:path-effect
       effect="spiro"
       id="path-effect1630"
       is_visible="true" />
    <inkscape:path-effect
       effect="spiro"
       id="path-effect1626"
       is_visible="true" />
    <inkscape:path-effect
       effect="powerstroke"
       id="path-effect1482"
       is_visible="true"
       offset_points="0,0.13229166"
       sort_points="true"
       interpolator_type="CubicBezierJohan"
       interpolator_beta="0.2"
       start_linecap_type="zerowidth"
       linejoin_type="extrp_arc"
       miter_limit="4"
       end_linecap_type="zerowidth" />
    <inkscape:path-effect
       effect="spiro"
       id="path-effect1480"
       is_visible="true" />
    <inkscape:path-effect
       effect="powerstroke"
       id="path-effect1476"
       is_visible="true"
       offset_points="0,0.13229166"
       sort_points="true"
       interpolator_type="CubicBezierJohan"
       interpolator_beta="0.2"
       start_linecap_type="zerowidth"
       linejoin_type="extrp_arc"
       miter_limit="4"
       end_linecap_type="zerowidth" />
    <inkscape:path-effect
       effect="spiro"
       id="path-effect1474"
       is_visible="true" />
    <inkscape:path-effect
       effect="powerstroke"
       id="path-effect1470"
       is_visible="true"
       offset_points="9,0.13229166"
       sort_points="true"
       interpolator_type="CubicBezierJohan"
       interpolator_beta="0.2"
       start_linecap_type="zerowidth"
       linejoin_type="extrp_arc"
       miter_limit="4"
       end_linecap_type="zerowidth" />
    <inkscape:path-effect
       effect="spiro"
       id="path-effect1468"
       is_visible="true" />
    <inkscape:path-effect
       effect="spiro"
       id="path-effect1082"
       is_visible="true" />
    <inkscape:path-effect
       effect="spiro"
       id="path-effect1078"
       is_visible="true" />
    <inkscape:path-effect
       effect="spiro"
       id="path-effect1029"
       is_visible="true" />
    <inkscape:path-effect
       effect="spiro"
       id="path-effect1016"
       is_visible="true" />
    <inkscape:path-effect
       effect="spiro"
       id="path-effect977"
       is_visible="true" />
    <inkscape:path-effect
       is_visible="true"
       id="path-effect964"
       effect="spiro" />
    <inkscape:path-effect
       effect="spiro"
       id="path-effect960"
       is_visible="true" />
    <inkscape:path-effect
       effect="spiro"
       id="path-effect948"
       is_visible="true" />
    <inkscape:path-effect
       effect="spiro"
       id="path-effect936"
       is_visible="true" />
    <inkscape:path-effect
       effect="spiro"
       id="path-effect932"
       is_visible="true" />
    <inkscape:path-effect
       effect="spiro"
       id="path-effect928"
       is_visible="true" />
    <inkscape:path-effect
       effect="spiro"
       id="path-effect924"
       is_visible="true" />
    <inkscape:path-effect
       effect="spiro"
       id="path-effect920"
       is_visible="true" />
    <inkscape:path-effect
       effect="spiro"
       id="path-effect916"
       is_visible="true" />
    <inkscape:path-effect
       effect="spiro"
       id="path-effect912"
       is_visible="true" />
    <inkscape:path-effect
       effect="spiro"
       id="path-effect908"
       is_visible="true" />
    <inkscape:path-effect
       effect="spiro"
       id="path-effect904"
       is_visible="true" />
    <inkscape:path-effect
       effect="spiro"
       id="path-effect900"
       is_visible="true" />
    <inkscape:path-effect
       effect="spiro"
       id="path-effect896"
       is_visible="true" />
    <inkscape:path-effect
       effect="spiro"
       id="path-effect870"
       is_visible="true" />
    <inkscape:path-effect
       effect="spiro"
       id="path-effect866"
       is_visible="true" />
    <inkscape:path-effect
       effect="spiro"
       id="path-effect850"
       is_visible="true" />
    <inkscape:path-effect
       effect="spiro"
       id="path-effect846"
       is_visible="true" />
    <inkscape:path-effect
       effect="spiro"
       id="path-effect838"
       is_visible="true" />
    <inkscape:path-effect
       effect="spiro"
       id="path-effect834"
       is_visible="true" />
    <inkscape:path-effect
       effect="spiro"
       id="path-effect830"
       is_visible="true" />
    <inkscape:path-effect
       effect="spiro"
       id="path-effect1029-7"
       is_visible="true" />
  </defs>
  <sodipodi:namedview
     id="base"
     pagecolor="#ffffff"
     bordercolor="#666666"
     borderopacity="1.0"
     inkscape:pageopacity="0.0"
     inkscape:pageshadow="2"
     inkscape:zoom="4"
     inkscape:cx="289.15486"
     inkscape:cy="568.94637"
     inkscape:document-units="mm"
     inkscape:current-layer="layer1"
     showgrid="false"
     inkscape:window-width="3840"
     inkscape:window-height="2066"
     inkscape:window-x="-11"
     inkscape:window-y="-11"
     inkscape:window-maximized="1" />
  <metadata
     id="metadata5">
    <rdf:RDF>
      <cc:Work
         rdf:about="">
        <dc:format>image/svg+xml</dc:format>
        <dc:type
           rdf:resource="http://purl.org/dc/dcmitype/StillImage" />
        <dc:title></dc:title>
      </cc:Work>
    </rdf:RDF>
  </metadata>
  <g
     inkscape:label="Layer 1"
     inkscape:groupmode="layer"
     id="layer1">
    <path
       style="fill:none;stroke:#000000;stroke-width:0.26458332px;stroke-linecap:butt;stroke-linejoin:miter;stroke-opacity:1"
       d="m 93.535076,171.97264 c -5.623805,-2.54091 -10.168085,-7.37915 -12.351957,-13.15099 -1.477882,-3.90595 -1.892615,-8.12543 -2.138156,-12.2944 -0.198803,-3.37541 -0.295443,-6.75684 -0.289745,-10.1381"
       id="path828"
       inkscape:connector-curvature="0"
       inkscape:path-effect="#path-effect830"
       inkscape:original-d="m 93.535076,171.97264 c -2.875587,-3.3472 -9.478545,-9.4763 -12.351957,-13.15099 -2.873412,-3.67469 -1.425173,-8.19653 -2.138156,-12.2944 -0.712983,-4.09787 -0.192899,-6.759 -0.289745,-10.1381"
       sodipodi:nodetypes="csc" />
    <path
       style="fill:none;stroke:#000000;stroke-width:0.26458332px;stroke-linecap:butt;stroke-linejoin:miter;stroke-opacity:1"
       d="m 38.820899,177.39688 c 2.904455,-2.67419 5.890831,-5.25941 8.953529,-7.75081 0.90292,-0.73449 1.814957,-1.46308 2.628726,-2.29526 0.813769,-0.83218 1.531595,-1.77629 1.981673,-2.84968 0.567349,-1.35307 0.684835,-2.89038 0.329686,-4.31395"
       id="path832"
       inkscape:connector-curvature="0"
       inkscape:path-effect="#path-effect834"
       inkscape:original-d="m 38.820899,177.39688 c 3.029318,-2.58387 5.969283,-5.16747 8.953529,-7.75081 2.984243,-2.58334 3.073863,-3.43023 4.610399,-5.14494 1.536536,-1.71471 0.129499,-2.93332 0.329686,-4.31395"
       sodipodi:nodetypes="cssc" />
    <path
       style="fill:none;stroke:#000000;stroke-width:0.26458332px;stroke-linecap:butt;stroke-linejoin:miter;stroke-opacity:1"
       d="m 45.502636,171.45014 c 1.012435,3.1375 2.821999,6.01424 5.211757,8.28535 3.06085,2.90889 7.089219,4.80443 11.292136,5.21176 4.898442,0.47474 9.815072,-1.03962 14.165287,-3.34087 4.172241,-2.2071 7.97674,-5.17394 10.891231,-8.88671 0.836875,-1.06609 1.598976,-2.19087 2.278853,-3.36334"
       id="path836"
       inkscape:connector-curvature="0"
       inkscape:path-effect="#path-effect838"
       inkscape:original-d="m 45.502636,171.45014 c 1.737516,2.76152 3.474768,5.5233 5.211757,8.28535 1.736987,2.76205 7.528357,3.47424 11.292136,5.21176 3.763783,1.73751 9.443789,-2.22751 14.165287,-3.34087 4.721494,-1.11336 7.261084,-5.92474 10.891231,-8.88671 3.630147,-2.96198 1.365948,-2.40589 2.278853,-3.36334"
       sodipodi:nodetypes="cscscc" />
    <path
       style="fill:none;stroke:#000000;stroke-width:0.26458332px;stroke-linecap:butt;stroke-linejoin:miter;stroke-opacity:1"
       d="m 90.706158,170.3249 c -1.39077,2.98722 -3.234573,5.76302 -5.448904,8.20319 -3.155349,3.47717 -7.091119,6.27772 -11.495232,7.90582 -4.404113,1.6281 -9.277733,2.05652 -13.852797,1.00024 -2.474146,-0.57122 -4.848689,-1.56862 -6.992559,-2.92932 -3.509159,-2.22725 -6.398599,-5.45906 -8.07924,-9.26041 -0.352819,-0.79802 -0.652919,-1.61935 -0.897694,-2.45685"
       id="path844"
       inkscape:connector-curvature="0"
       inkscape:path-effect="#path-effect846"
       inkscape:original-d="m 90.706158,170.3249 c -1.711698,3.12195 -3.363023,5.31689 -5.448904,8.20319 -2.751665,3.80756 -17.402389,5.00792 -25.348029,8.90606 -7.806974,3.83011 -4.661442,-1.95314 -6.992559,-2.92932 -2.331117,-0.97617 -5.385895,-6.17387 -8.07924,-9.26041 -2.693347,-3.08654 -0.598199,-1.63816 -0.897694,-2.45685"
       sodipodi:nodetypes="csscsc" />
    <path
       style="fill:none;stroke:#000000;stroke-width:0.26458332px;stroke-linecap:butt;stroke-linejoin:miter;stroke-opacity:1"
       d="m 58.465209,133.09696 c 0.468675,0.5089 0.786063,1.15543 0.902033,1.83748 0.106817,0.62821 0.04547,1.27196 -0.03341,1.90429 -0.267064,2.14096 -0.737363,4.27141 -1.603619,6.24743 -0.121568,0.27731 -0.251146,0.55221 -0.34073,0.84144 -0.08958,0.28923 -0.138339,0.59635 -0.09358,0.89581 0.03197,0.21392 0.112202,0.42129 0.238245,0.59707 0.126044,0.17578 0.298254,0.31924 0.496746,0.40519 0.204856,0.0887 0.433452,0.11501 0.655907,0.0964 0.222455,-0.0187 0.439491,-0.0809 0.647034,-0.16315 0.561374,-0.22239 1.062344,-0.5952 1.436573,-1.06907"
       id="path848"
       inkscape:connector-curvature="0"
       inkscape:path-effect="#path-effect850"
       inkscape:original-d="m 58.465209,133.09696 c 0.300942,0.62337 0.60162,1.22472 0.902033,1.83748 0.300416,0.61276 -0.02201,1.26926 -0.03341,1.90429 -0.0114,0.63503 -1.068814,4.16469 -1.603619,6.24743 -0.534802,2.08274 -0.289277,1.1579 -0.434313,1.73725 -0.145034,0.57935 0.490259,0.66791 0.734991,1.00226 0.244732,0.33435 0.868892,-0.0448 1.302941,-0.0668 0.434046,-0.022 0.957979,-0.71298 1.436573,-1.06907" />
    <path
       style="fill:none;stroke:#000000;stroke-width:0.26458332px;stroke-linecap:butt;stroke-linejoin:miter;stroke-opacity:1"
       d="m 61.923008,147.89701 c -0.01814,0.35056 -0.148577,0.69445 -0.367495,0.96885 -0.335914,0.42105 -0.882105,0.66523 -1.419871,0.63477"
       id="path864"
       inkscape:connector-curvature="0"
       inkscape:path-effect="#path-effect866"
       inkscape:original-d="m 61.923008,147.89701 c -0.122234,0.32269 -0.244731,0.64564 -0.367495,0.96885 -0.122764,0.32322 -0.946317,0.42291 -1.419871,0.63477" />
    <path
       style="fill:none;stroke:#000000;stroke-width:0.26458332px;stroke-linecap:butt;stroke-linejoin:miter;stroke-opacity:1"
       d="m 78.867093,143.30543 c 0.961764,0.0272 1.929615,-0.20346 2.775763,-0.66146 0.355808,-0.19259 0.691858,-0.42588 0.976723,-0.71319 0.284865,-0.2873 0.517795,-0.63011 0.653299,-1.01133 0.231752,-0.652 0.160578,-1.39974 -0.167134,-2.00918 -0.327713,-0.60945 -0.901943,-1.07626 -1.557381,-1.29811 -0.923971,-0.31275 -2.001356,-0.12397 -2.763951,0.48429"
       id="path868"
       inkscape:connector-curvature="0"
       inkscape:path-effect="#path-effect870"
       inkscape:original-d="m 78.867093,143.30543 c 0.779841,-0.22075 1.996452,-0.44124 2.775763,-0.66146 0.779312,-0.22022 1.086946,-1.14994 1.630022,-1.72452 0.543078,-0.57457 -1.149411,-2.20512 -1.724515,-3.30729 -0.575103,-1.10216 -2.078604,0.45249 -2.763951,0.48429"
       sodipodi:nodetypes="csccc" />
    <path
       style="fill:none;stroke:#000000;stroke-width:0.26458332px;stroke-linecap:butt;stroke-linejoin:miter;stroke-opacity:1"
       d="m 45.026413,175.66964 1.771763,-1.32292"
       id="path894"
       inkscape:connector-curvature="0"
       inkscape:path-effect="#path-effect896"
       inkscape:original-d="m 45.026413,175.66964 c 0.590851,-0.43336 1.181441,-0.88221 1.771763,-1.32292" />
    <path
       style="fill:none;stroke:#000000;stroke-width:0.26458332px;stroke-linecap:butt;stroke-linejoin:miter;stroke-opacity:1"
       d="m 46.538319,178.31547 1.582774,-1.60639"
       id="path898"
       inkscape:connector-curvature="0"
       inkscape:path-effect="#path-effect900"
       inkscape:original-d="m 46.538319,178.31547 c 0.527857,-0.53573 1.055446,-1.07119 1.582774,-1.60639" />
    <path
       style="fill:none;stroke:#000000;stroke-width:0.26458332px;stroke-linecap:butt;stroke-linejoin:miter;stroke-opacity:1"
       d="m 49.207774,181.62277 1.511906,-2.05525"
       id="path902"
       inkscape:connector-curvature="0"
       inkscape:path-effect="#path-effect904"
       inkscape:original-d="m 49.207774,181.62277 c 0.504235,-0.68535 1.008203,-1.37043 1.511906,-2.05525" />
    <path
       style="fill:none;stroke:#000000;stroke-width:0.26458332px;stroke-linecap:butt;stroke-linejoin:miter;stroke-opacity:1"
       d="m 54.523065,185.3789 0.944941,-2.26785"
       id="path906"
       inkscape:connector-curvature="0"
       inkscape:path-effect="#path-effect908"
       inkscape:original-d="m 54.523065,185.3789 c 0.330994,-0.76409 0.630224,-1.51217 0.944941,-2.26785" />
    <path
       style="fill:none;stroke:#000000;stroke-width:0.26458332px;stroke-linecap:butt;stroke-linejoin:miter;stroke-opacity:1"
       d="m 59.649367,187.36328 0.425223,-2.76395"
       id="path910"
       inkscape:connector-curvature="0"
       inkscape:path-effect="#path-effect912"
       inkscape:original-d="m 59.649367,187.36328 c 0.149881,-0.92158 0.283747,-1.8429 0.425223,-2.76395" />
    <path
       style="fill:none;stroke:#000000;stroke-width:0.26458332px;stroke-linecap:butt;stroke-linejoin:miter;stroke-opacity:1"
       d="m 65.956843,184.93006 -0.259858,3.14193"
       id="path914"
       inkscape:connector-curvature="0"
       inkscape:path-effect="#path-effect916"
       inkscape:original-d="m 65.956843,184.93006 c -0.09423,1.04704 -0.172974,2.09435 -0.259858,3.14193" />
    <path
       style="fill:none;stroke:#000000;stroke-width:0.26458332px;stroke-linecap:butt;stroke-linejoin:miter;stroke-opacity:1"
       d="m 72.429687,183.44178 1.712706,2.89387"
       id="path918"
       inkscape:connector-curvature="0"
       inkscape:path-effect="#path-effect920"
       inkscape:original-d="m 72.429687,183.44178 c 0.614476,1.03129 1.098759,1.86205 1.712706,2.89387"
       sodipodi:nodetypes="cc" />
    <path
       style="fill:none;stroke:#000000;stroke-width:0.26458332px;stroke-linecap:butt;stroke-linejoin:miter;stroke-opacity:1"
       d="m 78.512741,184.15048 -1.996187,-2.74033"
       id="path922"
       inkscape:connector-curvature="0"
       inkscape:path-effect="#path-effect924"
       inkscape:original-d="m 78.512741,184.15048 c -0.732065,-1.0082 -1.263592,-1.73265 -1.996187,-2.74033"
       sodipodi:nodetypes="cc" />
    <path
       style="fill:none;stroke:#000000;stroke-width:0.26458332px;stroke-linecap:butt;stroke-linejoin:miter;stroke-opacity:1"
       d="M 83.166573,180.63058 80.86328,178.71707"
       id="path926"
       inkscape:connector-curvature="0"
       inkscape:path-effect="#path-effect928"
       inkscape:original-d="m 83.166573,180.63058 c -0.826558,-0.69322 -1.476205,-1.22081 -2.303293,-1.91351"
       sodipodi:nodetypes="cc" />
    <path
       style="fill:none;stroke:#000000;stroke-width:0.26458332px;stroke-linecap:butt;stroke-linejoin:miter;stroke-opacity:1"
       d="m 86.556547,176.85082 -1.748139,-1.41741"
       id="path930"
       inkscape:connector-curvature="0"
       inkscape:path-effect="#path-effect932"
       inkscape:original-d="m 86.556547,176.85082 c -0.582448,-0.47274 -1.165161,-0.94521 -1.748139,-1.41741" />
    <path
       style="fill:none;stroke:#000000;stroke-width:0.26458332px;stroke-linecap:butt;stroke-linejoin:miter;stroke-opacity:1"
       d="m 64.846268,133.19719 c 1.232115,-0.77312 2.789202,-1.00827 4.194675,-0.63348 1.405473,0.37479 2.638722,1.35403 3.32228,2.638 0.478324,0.89847 0.690821,1.93546 0.610597,2.95015 -0.08022,1.01469 -0.45212,2.00384 -1.055286,2.82373 -0.603166,0.8199 -1.435201,1.46854 -2.375104,1.85921 -0.939903,0.39066 -1.984853,0.52294 -2.993319,0.38499 -1.846808,-0.25263 -3.539189,-1.44885 -4.393605,-3.1055 -0.854415,-1.65665 -0.847841,-3.7291 0.01707,-5.3803"
       id="path934"
       inkscape:connector-curvature="0"
       inkscape:path-effect="#path-effect936"
       inkscape:original-d="m 64.846268,133.19719 c 2.483644,0.65677 5.011568,1.33608 7.516955,2.00452 2.505387,0.66844 -3.875143,5.34512 -5.813112,8.01808 -1.937968,2.67296 -2.917426,-5.65747 -4.376537,-8.4858" />
    <path
       style="fill:none;stroke:#000000;stroke-width:0.26458332px;stroke-linecap:butt;stroke-linejoin:miter;stroke-opacity:1"
       d="m 61.580569,136.92226 c -0.658936,-0.70087 -1.658892,-1.06508 -2.614229,-0.95215 -0.722176,0.0854 -1.41011,0.43537 -1.904296,0.96885"
       id="path946"
       inkscape:connector-curvature="0"
       inkscape:path-effect="#path-effect948"
       inkscape:original-d="m 61.580569,136.92226 c -0.890633,-0.34549 -1.723067,-0.60719 -2.614229,-0.95215 -0.891164,-0.34496 -1.269267,0.64564 -1.904296,0.96885"
       sodipodi:nodetypes="csc" />
    <path
       style="fill:#000000;stroke:#000000;stroke-width:0.26458332px;stroke-linecap:butt;stroke-linejoin:miter;stroke-opacity:1;fill-opacity:1"
       d="m 66.73642,137.49404 c -0.09568,5.9e-4 -0.190224,0.0311 -0.271344,0.0818 -0.08112,0.0507 -0.149058,0.12126 -0.201624,0.20121 -0.105131,0.15991 -0.147807,0.35319 -0.164866,0.5438 -0.01253,0.14 -0.01225,0.28196 0.01368,0.42011 0.02593,0.13814 0.07829,0.27267 0.163035,0.3848 0.08475,0.11213 0.203114,0.20087 0.338383,0.23905 0.135268,0.0382 0.287143,0.0229 0.406216,-0.0518 0.106628,-0.0669 0.181505,-0.17621 0.227262,-0.29347 0.04576,-0.11725 0.06481,-0.24303 0.07985,-0.36799 0.02941,-0.2445 0.04339,-0.4998 -0.04393,-0.73006 -0.04366,-0.11514 -0.113008,-0.22185 -0.207766,-0.30048 -0.09476,-0.0786 -0.215763,-0.12778 -0.338893,-0.12702 z"
       id="path958"
       inkscape:connector-curvature="0"
       inkscape:path-effect="#path-effect960"
       inkscape:original-d="m 66.73642,137.49404 c -0.236498,-0.5037 -0.464331,0.43284 -0.637834,0.82683 -0.173503,0.39399 0.614476,0.66119 0.921316,0.99219 0.306843,0.33099 0.205002,-0.44124 0.307107,-0.66146 0.102103,-0.22022 -0.354089,-0.65385 -0.590589,-1.15756 z"
       sodipodi:nodetypes="csccc" />
    <path
       sodipodi:nodetypes="csccc"
       inkscape:original-d="m 66.73642,137.49404 c -0.236498,-0.5037 -0.464331,0.43284 -0.637834,0.82683 -0.173503,0.39399 0.614476,0.66119 0.921316,0.99219 0.306843,0.33099 0.205002,-0.44124 0.307107,-0.66146 0.102103,-0.22022 -0.354089,-0.65385 -0.590589,-1.15756 z"
       inkscape:path-effect="#path-effect964"
       inkscape:connector-curvature="0"
       id="path962"
       d="m 66.73642,137.49404 c -0.09568,5.9e-4 -0.190224,0.0311 -0.271344,0.0818 -0.08112,0.0507 -0.149058,0.12126 -0.201624,0.20121 -0.105131,0.15991 -0.147807,0.35319 -0.164866,0.5438 -0.01253,0.14 -0.01225,0.28196 0.01368,0.42011 0.02593,0.13814 0.07829,0.27267 0.163035,0.3848 0.08475,0.11213 0.203114,0.20087 0.338383,0.23905 0.135268,0.0382 0.287143,0.0229 0.406216,-0.0518 0.106628,-0.0669 0.181505,-0.17621 0.227262,-0.29347 0.04576,-0.11725 0.06481,-0.24303 0.07985,-0.36799 0.02941,-0.2445 0.04339,-0.4998 -0.04393,-0.73006 -0.04366,-0.11514 -0.113008,-0.22185 -0.207766,-0.30048 -0.09476,-0.0786 -0.215763,-0.12778 -0.338893,-0.12702 z"
       style="fill:#000000;fill-opacity:1;stroke:#000000;stroke-width:0.26458332px;stroke-linecap:butt;stroke-linejoin:miter;stroke-opacity:1"
       transform="translate(-14.882813,0.28348214)" />
    <path
       style="fill:none;stroke:#000000;stroke-width:0.26458332px;stroke-linecap:butt;stroke-linejoin:miter;stroke-opacity:1"
       d="m 57.062044,136.93896 c -0.282832,-0.97147 -0.889013,-1.83437 -1.658641,-2.49121 -0.769629,-0.65683 -1.697565,-1.1138 -2.667786,-1.4009 -0.805108,-0.23825 -1.649115,-0.36312 -2.486794,-0.30608 -0.837679,0.057 -1.669415,0.30071 -2.374169,0.75709 -0.748325,0.4846 -1.337832,1.20172 -1.700995,2.01593 -0.363163,0.81421 -0.502961,1.72208 -0.437163,2.61118 0.09922,1.34076 0.671749,2.64177 1.593351,3.62062 0.921602,0.97885 2.185806,1.62865 3.51818,1.80829 1.085137,0.14631 2.211855,-0.0168 3.206046,-0.47562 0.994191,-0.45881 1.851594,-1.21312 2.423318,-2.14696 0.722986,-1.18091 0.971705,-2.66289 0.584653,-3.99234 z"
       id="path975"
       inkscape:connector-curvature="0"
       inkscape:path-effect="#path-effect977"
       inkscape:original-d="m 57.062044,136.93896 c 0.194619,-1.33052 -2.884019,-2.59501 -4.326427,-3.89211 -1.442405,-1.29711 -2.850609,0.18905 -4.860963,0.45101 -2.010354,0.26197 -1.81494,3.19584 -2.138158,4.62711 -0.323215,1.43127 3.407953,3.61901 5.111531,5.42891 1.703578,1.8099 3.753175,-1.74865 5.629364,-2.62258 1.87619,-0.87393 0.390033,-2.66183 0.584653,-3.99234 z"
       sodipodi:nodetypes="ccccssc" />
    <path
       style="fill:#000000;stroke:#000000;stroke-width:0.26458332px;stroke-linecap:butt;stroke-linejoin:miter;stroke-opacity:1;fill-opacity:1"
       d="m 80.526646,140.03948 c -0.07869,-0.009 -0.161213,0.017 -0.21884,0.0712 -0.02881,0.0271 -0.05132,0.061 -0.06472,0.0982 -0.0134,0.0372 -0.01763,0.0778 -0.01173,0.11694 0.01116,0.074 0.05961,0.14081 0.125131,0.17698 0.06552,0.0362 0.146489,0.0418 0.217409,0.0179 0.06586,-0.0222 0.123345,-0.0699 0.154663,-0.13191 0.03132,-0.062 0.03526,-0.13795 0.0077,-0.20177 -0.01773,-0.0411 -0.04783,-0.0766 -0.08473,-0.10202 -0.03689,-0.0254 -0.08041,-0.0408 -0.124931,-0.0456 z"
       id="path1014"
       inkscape:connector-curvature="0"
       inkscape:path-effect="#path-effect1016"
       inkscape:original-d="m 80.526646,140.03948 c -0.07015,-0.0489 -0.196599,0.19069 -0.295294,0.28643 -0.0987,0.0958 0.228624,0.12967 0.34254,0.1949 0.113917,0.0652 0.10854,-0.22272 0.162412,-0.33368 0.05387,-0.11097 -0.139507,-0.0987 -0.209658,-0.14765 z" />
    <path
       style="fill:none;stroke:#000000;stroke-width:0.26458332px;stroke-linecap:butt;stroke-linejoin:miter;stroke-opacity:1"
       d="m 78.784412,137.23419 c -1.179496,-0.0998 -2.312558,-0.67065 -3.09468,-1.55916 -0.843093,-0.95778 -1.264354,-2.27422 -1.133928,-3.54352"
       id="path1624"
       inkscape:connector-curvature="0"
       inkscape:path-effect="#path-effect1626"
       inkscape:original-d="m 78.784412,137.23419 c -1.015548,-0.51211 -2.062856,-1.0397 -3.09468,-1.55916 -1.031825,-0.51945 -0.755687,-2.36261 -1.133928,-3.54352" />
    <path
       style="fill:none;stroke:#000000;stroke-width:0.26458332px;stroke-linecap:butt;stroke-linejoin:miter;stroke-opacity:1"
       d="m 75.388533,132.01338 c -1.318286,0.12419 -2.679881,-0.3028 -3.691176,-1.15754 -0.933268,-0.78879 -1.560226,-1.93106 -1.724514,-3.14193"
       id="path1628"
       inkscape:connector-curvature="0"
       inkscape:path-effect="#path-effect1630"
       inkscape:original-d="m 75.388533,132.01338 c -2.726521,1.14236 -2.462488,-0.82708 -3.691176,-1.15754 -1.228685,-0.33047 -1.149411,-2.09488 -1.724514,-3.14193"
       sodipodi:nodetypes="ccc" />
    <path
       style="fill:none;stroke:#000000;stroke-width:0.26458332px;stroke-linecap:butt;stroke-linejoin:miter;stroke-opacity:1"
       d="m 71.413874,129.24944 c -0.716512,0.23835 -1.543058,0.11678 -2.160598,-0.31778 -0.61754,-0.43457 -1.011025,-1.17154 -1.028575,-1.92645 -0.01141,-0.49088 0.130742,-0.98424 0.4016,-1.39379"
       id="path1632"
       inkscape:connector-curvature="0"
       inkscape:path-effect="#path-effect1634"
       inkscape:original-d="m 71.413874,129.24944 c -1.062791,-0.73259 -2.12585,-1.49642 -3.189173,-2.24423 -1.063321,-0.74782 0.267999,-0.92946 0.4016,-1.39379" />
    <path
       style="fill:none;stroke:#000000;stroke-width:0.26458332px;stroke-linecap:butt;stroke-linejoin:miter;stroke-opacity:1"
       d="m 66.34966,125.64682 c 0.01304,1.36693 -0.586455,2.72829 -1.603619,3.64155 -0.614773,0.55198 -1.373439,0.94228 -2.179975,1.12151 -0.806535,0.17923 -1.659103,0.14698 -2.449793,-0.0927"
       id="path1640"
       inkscape:connector-curvature="0"
       inkscape:path-effect="#path-effect1642"
       inkscape:original-d="m 66.34966,125.64682 c -0.534276,1.22472 -1.068814,2.42744 -1.603619,3.64155 -0.534802,1.21411 -3.204066,0.58312 -4.629768,1.02884"
       sodipodi:nodetypes="ccc" />
    <path
       style="fill:none;stroke:#000000;stroke-width:0.26458332px;stroke-linecap:butt;stroke-linejoin:miter;stroke-opacity:1"
       d="m 54.188896,125.9475 c 0.19371,-0.12335 0.429707,-0.17888 0.658095,-0.15484 0.228389,0.024 0.447652,0.12749 0.611434,0.28847 0.241095,0.23697 0.350116,0.57688 0.411125,0.90938 0.06101,0.33251 0.08327,0.67423 0.190234,0.99492 0.08967,0.26885 0.239141,0.51866 0.440272,0.71833 0.201131,0.19967 0.45424,0.3482 0.72903,0.41757 0.117154,0.0296 0.2379,0.0449 0.358727,0.0455"
       id="path1644"
       inkscape:connector-curvature="0"
       inkscape:path-effect="#path-effect1646"
       inkscape:original-d="m 54.188896,125.9475 c 0.412306,0.0443 0.846619,0.0888 1.269529,0.13363 0.422913,0.0448 0.40117,1.26927 0.601359,1.9043 0.200186,0.63503 0.779798,0.757 1.169302,1.1359 0.389504,0.37889 0.236494,0.0564 0.358727,0.0455"
       sodipodi:nodetypes="ccccc" />
    <path
       style="fill:none;stroke:#000000;stroke-width:0.26458332px;stroke-linecap:butt;stroke-linejoin:miter;stroke-opacity:1"
       d="m 45.836723,118.12987 c -1.194813,-0.0636 -2.407932,0.29671 -3.374276,1.00226 -1.037741,0.75768 -1.776297,1.8982 -2.10475,3.14042 -0.193017,0.73 -0.243547,1.53195 0.06812,2.21971 0.155834,0.34388 0.402208,0.65045 0.720563,0.8534 0.318356,0.20295 0.709942,0.29728 1.082203,0.23435 0.08998,-0.0152 0.178606,-0.0393 0.269495,-0.0475 0.09089,-0.008 0.186603,8.4e-4 0.265046,0.0475 0.06973,0.0414 0.120971,0.1106 0.147665,0.18721 0.02669,0.0766 0.02989,0.1602 0.01686,0.24027 -0.02606,0.16014 -0.113568,0.30255 -0.197934,0.44114 -0.102053,0.16764 -0.202842,0.33802 -0.266317,0.52373 -0.06348,0.18571 -0.0878,0.38992 -0.03436,0.57876 0.05242,0.18525 0.176848,0.34454 0.327717,0.46413 0.15087,0.1196 0.327543,0.20245 0.507498,0.27086 0.78448,0.29823 1.666196,0.33397 2.472243,0.10023"
       id="path1652"
       inkscape:connector-curvature="0"
       inkscape:path-effect="#path-effect1654"
       inkscape:original-d="m 45.836723,118.12987 c -1.113359,0.32268 -2.249255,0.6679 -3.374276,1.00226 -1.125024,0.33435 -1.4029,2.09335 -2.10475,3.14042 -0.701847,1.04707 1.247524,2.2047 1.870887,3.30746 0.623367,1.10275 0.356624,-2.7e-4 0.534541,0 0.177913,2.6e-4 -0.02201,0.57881 -0.03341,0.86862 -0.0114,0.28981 -0.200189,0.73473 -0.300678,1.10249 -0.100492,0.36776 0.557075,0.48973 0.835215,0.73499 0.278144,0.24526 1.648429,0.0665 2.472243,0.10023" />
    <path
       style="fill:none;stroke:#000000;stroke-width:0.26458332px;stroke-linecap:butt;stroke-linejoin:miter;stroke-opacity:1"
       d="m 80.440282,137.47945 c 1.044086,-0.52607 1.983377,-1.25912 2.747357,-2.14411 1.086,-1.25801 1.817188,-2.85053 1.904297,-4.51017 0.05547,-1.05685 -0.152428,-2.13161 -0.634767,-3.0736 -0.526639,-1.02851 -1.387638,-1.89226 -2.438834,-2.37202 -0.648165,-0.29582 -1.359231,-0.44475 -2.071339,-0.46772 -0.289847,-0.009 -0.580354,0.002 -0.868627,0.0334"
       id="path1670"
       inkscape:connector-curvature="0"
       inkscape:path-effect="#path-effect1672"
       inkscape:original-d="m 80.440282,137.47945 c 0.935707,-0.73526 1.801043,-1.40938 2.747357,-2.14411 0.946315,-0.73473 1.269794,-3.00704 1.904297,-4.51017 0.6345,-1.50313 -0.422913,-2.04933 -0.634767,-3.0736 -0.211852,-1.02427 -1.625624,-1.58161 -2.438834,-2.37202 -0.813208,-0.79041 -1.380628,-0.31208 -2.071339,-0.46772 -0.69071,-0.15564 -0.578818,0.022 -0.868627,0.0334"
       sodipodi:nodetypes="cscccsc" />
    <path
       style="fill:none;stroke:#000000;stroke-width:0.26458332px;stroke-linecap:butt;stroke-linejoin:miter;stroke-opacity:1"
       d="m 65.781713,123.67571 c -0.0084,0.69357 0.191831,1.38832 0.567947,1.97111 0.429529,0.66556 1.08795,1.18032 1.837478,1.43658"
       id="path1674"
       inkscape:connector-curvature="0"
       inkscape:path-effect="#path-effect1676"
       inkscape:original-d="m 65.781713,123.67571 c 0.189579,0.65677 0.378894,1.31381 0.567947,1.97111 0.18905,0.6573 1.225251,0.95745 1.837478,1.43658" />
    <path
       style="fill:none;stroke:#000000;stroke-width:0.26458332px;stroke-linecap:butt;stroke-linejoin:miter;stroke-opacity:1"
       d="m 60.245483,130.33732 c 0.214093,-0.0996 0.400464,-0.25801 0.533246,-0.45326 0.132782,-0.19525 0.211608,-0.4268 0.22554,-0.66251 0.01992,-0.33696 -0.09388,-0.67657 -0.296377,-0.94664 -0.202494,-0.27006 -0.490071,-0.47159 -0.80611,-0.59016 -0.324616,-0.12179 -0.68199,-0.15795 -1.023104,-0.0959 -0.341115,0.062 -0.66473,0.22305 -0.914601,0.46341 -0.286313,0.27541 -0.471577,0.65365 -0.513658,1.04869"
       id="path1678"
       inkscape:connector-curvature="0"
       inkscape:path-effect="#path-effect1680"
       inkscape:original-d="m 60.245483,130.33732 c 0.178443,-0.46799 0.58087,-0.64831 0.758786,-1.11577 0.177917,-0.46745 -0.734726,-1.0248 -1.102487,-1.5368 -0.36776,-0.512 -1.291537,0.24473 -1.937705,0.3675 -0.646165,0.12276 -0.390894,0.7032 -0.513658,1.04869"
       sodipodi:nodetypes="ccccc" />
    <path
       style="fill:none;stroke:#000000;stroke-width:0.26458332px;stroke-linecap:butt;stroke-linejoin:miter;stroke-opacity:1"
       d="m 46.089472,118.85509 c -0.444539,-0.74569 -0.683896,-1.61232 -0.685083,-2.48046 -0.0013,-0.91545 0.260373,-1.82406 0.708705,-2.62221 0.45948,-0.818 1.111458,-1.52163 1.866259,-2.07887 1.171193,-0.86465 2.573857,-1.37351 4.000147,-1.66507 1.426291,-0.29156 2.88567,-0.37571 4.338951,-0.46105 1.055245,-0.062 2.11043,-0.12497 3.165552,-0.18899"
       id="path1682"
       inkscape:connector-curvature="0"
       inkscape:path-effect="#path-effect1684"
       inkscape:original-d="m 46.089472,118.85509 c -0.235972,-0.82708 -0.456457,-1.65391 -0.685083,-2.48046 -0.228624,-0.82656 0.472736,-1.74841 0.708705,-2.62221 0.235971,-0.87381 1.244438,-1.38618 1.866259,-2.07887 0.621821,-0.69269 5.559663,-1.41768 8.339098,-2.12612 2.779437,-0.70844 2.110631,-0.12626 3.165552,-0.18899" />
    <path
       style="fill:none;stroke:#000000;stroke-width:0.26458332px;stroke-linecap:butt;stroke-linejoin:miter;stroke-opacity:1"
       d="m 59.176895,110.75223 c 0.04447,-0.76103 0.310006,-1.50784 0.755955,-2.12612 0.413398,-0.57315 0.976622,-1.03249 1.607106,-1.35168 0.630484,-0.3192 1.326913,-0.50034 2.030914,-0.56182 1.072315,-0.0936 2.152883,0.0869 3.189174,0.37798 1.627813,0.45724 3.186037,1.19522 4.512091,2.24423 1.729141,1.36788 3.037181,3.26085 3.705151,5.362"
       id="path1686"
       inkscape:connector-curvature="0"
       inkscape:path-effect="#path-effect1688"
       inkscape:original-d="m 59.176895,110.75223 c 0.252252,-0.71684 0.504235,-1.41767 0.755955,-2.12612 0.251719,-0.70844 2.42561,-1.27593 3.63802,-1.9135 1.212409,-0.63757 2.12638,0.25172 3.189174,0.37798 1.062794,0.12625 3.008326,1.49589 4.512091,2.24423 1.503764,0.74834 2.382499,3.86558 3.705151,5.362"
       sodipodi:nodetypes="ccscsc" />
    <path
       style="fill:none;stroke:#000000;stroke-width:0.26458332px;stroke-linecap:butt;stroke-linejoin:miter;stroke-opacity:1"
       d="m 81.335752,125.25707 c 0.38565,-1.33306 0.393928,-2.77309 0.02363,-4.11049 -0.306321,-1.10634 -0.864238,-2.13371 -1.559152,-3.04744 -0.958266,-1.26001 -2.196032,-2.32344 -3.638021,-2.97656 -0.964507,-0.43686 -2.013202,-0.68693 -3.071056,-0.73233"
       id="path1690"
       inkscape:connector-curvature="0"
       inkscape:path-effect="#path-effect1692"
       inkscape:original-d="m 81.335752,125.25707 c 2.65e-4,-1.37043 0.01601,-2.74059 0.02363,-4.11049 0.0076,-1.3699 -1.039169,-2.03189 -1.559152,-3.04744 -0.519981,-1.01554 -2.425081,-1.98464 -3.638021,-2.97656 -1.212937,-0.99192 -2.047105,-0.48848 -3.071056,-0.73233" />
    <path
       style="fill:none;stroke:#000000;stroke-width:0.26458332px;stroke-linecap:butt;stroke-linejoin:miter;stroke-opacity:1"
       d="m 44.979166,125.16257 c -0.400487,1.19395 -0.331533,2.53855 0.188989,3.68527 0.245864,0.54164 0.589942,1.04072 1.0236,1.44786 0.433659,0.40714 0.957694,0.72095 1.527738,0.89087 0.589093,0.1756 1.220853,0.19557 1.824928,0.0817 0.604075,-0.11384 1.180467,-0.35957 1.694975,-0.69594 0.927392,-0.60631 1.654322,-1.51392 2.043435,-2.55135"
       id="path1703"
       inkscape:connector-curvature="0"
       inkscape:path-effect="#path-effect1705"
       inkscape:original-d="m 44.979166,125.16257 c 0.06326,1.22816 0.126257,2.45658 0.188989,3.68527 0.06273,1.22869 1.701157,1.55889 2.551338,2.33873 0.850183,0.77984 2.346867,-0.40974 3.519903,-0.61421 1.173038,-0.20448 -0.292039,-4.03225 2.043435,-2.55135"
       sodipodi:nodetypes="ccccc" />
    <path
       style="fill:none;stroke:#000000;stroke-width:0.26458332px;stroke-linecap:butt;stroke-linejoin:miter;stroke-opacity:1"
       d="m 54.664805,124.24125 c 0.09535,1.10047 -0.202144,2.23094 -0.826823,3.14193 -0.363838,0.5306 -0.854974,0.99937 -1.464656,1.2048 -0.40072,0.13502 -0.841205,0.14949 -1.24992,0.0411 -0.408715,-0.10843 -0.784098,-0.33935 -1.065185,-0.65526"
       id="path1707"
       inkscape:connector-curvature="0"
       inkscape:path-effect="#path-effect1709"
       inkscape:original-d="m 54.664805,124.24125 c -0.275341,1.04705 -0.55095,2.09436 -0.826823,3.14193 -0.27587,1.04758 -0.976172,0.80294 -1.464656,1.2048 -0.488485,0.40186 -1.543138,-0.40974 -2.315105,-0.61421" />
    <path
       style="fill:none;stroke:#000000;stroke-width:0.26458332px;stroke-linecap:butt;stroke-linejoin:miter;stroke-opacity:1"
       d="m 47.920308,142.80115 c -0.539218,1.32093 -0.751788,2.77379 -0.613602,4.19383 0.06637,0.682 0.212446,1.35621 0.434313,2.00452"
       id="path1720"
       inkscape:connector-curvature="0"
       inkscape:path-effect="#path-effect1722"
       inkscape:original-d="m 47.920308,142.80115 c -2.362924,-5.75195 -0.212433,3.44743 -0.613602,4.19383 -0.40117,0.74639 0.289806,1.33608 0.434313,2.00452"
       sodipodi:nodetypes="ccc" />
    <path
       style="fill:none;stroke:#000000;stroke-width:0.26458332px;stroke-linecap:butt;stroke-linejoin:miter;stroke-opacity:1"
       d="m 48.208742,148.36473 c -0.176462,0.19537 -0.333401,0.40835 -0.467723,0.63477 -0.298432,0.50304 -0.484997,1.08352 -0.460728,1.66792 0.02427,0.5844 0.274447,1.16998 0.727997,1.53931 0.30037,0.24459 0.681943,0.38769 1.069078,0.40091"
       id="path1724"
       inkscape:connector-curvature="0"
       inkscape:path-effect="#path-effect1726"
       inkscape:original-d="m 48.208742,148.36473 c -0.155644,0.21133 -0.311552,0.42291 -0.467723,0.63477 -0.156173,0.21185 0.178443,2.13789 0.267269,3.20723 0.08883,1.06934 0.712983,0.26701 1.069078,0.40091" />
    <path
       style="fill:none;stroke:#000000;stroke-width:0.26458332px;stroke-linecap:butt;stroke-linejoin:miter;stroke-opacity:1"
       d="m 48.342375,151.40492 c -0.186863,0.40831 -0.267863,0.86452 -0.232979,1.3122 0.03488,0.44768 0.185577,0.88584 0.433432,1.26027 0.185151,0.27971 0.430122,0.52828 0.734992,0.66817 0.286524,0.13147 0.618991,0.16005 0.923748,0.0794"
       id="path1728"
       inkscape:connector-curvature="0"
       inkscape:path-effect="#path-effect1730"
       inkscape:original-d="m 48.342375,151.40492 c 0.06708,0.85723 0.1339,1.71472 0.200453,2.57247 0.06655,0.85776 0.490257,0.44519 0.734992,0.66817 0.244731,0.223 0.924928,0.0791 0.923748,0.0794"
       sodipodi:nodetypes="cccc" />
    <path
       style="fill:none;stroke:#000000;stroke-width:0.26458332px;stroke-linecap:butt;stroke-linejoin:miter;stroke-opacity:1"
       d="m 49.74554,154.81261 c 0.03163,1.20858 0.47348,2.40276 1.236122,3.34087 0.437553,0.53822 0.977492,0.99292 1.582324,1.3325"
       id="path1732"
       inkscape:connector-curvature="0"
       inkscape:path-effect="#path-effect1734"
       inkscape:original-d="m 49.74554,154.81261 c 0.412305,1.11336 0.824346,2.22698 1.236122,3.34087 0.411777,1.11389 0.955756,0.83545 1.582324,1.3325"
       sodipodi:nodetypes="csc" />
    <path
       style="fill:none;stroke:#000000;stroke-width:0.26458332px;stroke-linecap:butt;stroke-linejoin:miter;stroke-opacity:1"
       d="m 52.685505,158.48757 c -0.22844,0.67718 -0.153601,1.45052 0.200453,2.07133 0.35579,0.62386 0.968336,1.07436 1.637025,1.33635 1.032498,0.40453 2.225693,0.37993 3.240643,-0.0668"
       id="path1736"
       inkscape:connector-curvature="0"
       inkscape:path-effect="#path-effect1738"
       inkscape:original-d="m 52.685505,158.48757 c 0.06708,0.69018 0.1339,1.38062 0.200453,2.07133 0.06655,0.69071 1.091613,0.89064 1.637025,1.33635 0.54541,0.44572 2.160693,-0.0448 3.240643,-0.0668" />
    <path
       style="fill:none;stroke:#000000;stroke-width:0.26458332px;stroke-linecap:butt;stroke-linejoin:miter;stroke-opacity:1"
       d="m 57.162271,161.09344 c 0.144697,0.70118 0.57417,1.33926 1.169302,1.73726 0.344387,0.23031 0.742197,0.3819 1.15358,0.43101 0.411382,0.0491 0.8357,-0.005 1.218439,-0.16375 0.716997,-0.29714 1.263522,-0.97379 1.403164,-1.73725"
       id="path1740"
       inkscape:connector-curvature="0"
       inkscape:path-effect="#path-effect1742"
       inkscape:original-d="m 57.162271,161.09344 c 0.390033,0.57882 0.779798,1.15791 1.169302,1.73726 0.389504,0.57934 1.58161,0.17791 2.372019,0.26726 0.790408,0.0894 0.935706,-1.15843 1.403164,-1.73725" />
    <path
       style="fill:none;stroke:#000000;stroke-width:0.26458332px;stroke-linecap:butt;stroke-linejoin:miter;stroke-opacity:1"
       d="m 61.338356,161.09344 c 0.04763,0.44 0.249605,0.86176 0.562548,1.17471 0.312944,0.31294 0.734705,0.51492 1.174704,0.56255 0.532116,0.0576 1.074498,-0.10872 1.521246,-0.40348 0.446749,-0.29476 0.803398,-0.71135 1.084632,-1.16673 0.346545,-0.56114 0.585959,-1.18817 0.701582,-1.83748"
       id="path1744"
       inkscape:connector-curvature="0"
       inkscape:path-effect="#path-effect1746"
       inkscape:original-d="m 61.338356,161.09344 c 0.579348,0.57882 1.158433,1.15791 1.737252,1.73726 0.578818,0.57934 1.737516,-1.04707 2.605878,-1.57021 0.86836,-0.52314 0.467987,-1.22525 0.701582,-1.83748" />
    <path
       style="fill:none;stroke:#000000;stroke-width:0.26458332px;stroke-linecap:butt;stroke-linejoin:miter;stroke-opacity:1"
       d="m 64.712635,158.72143 c 0.05776,0.55748 0.334104,1.08939 0.757034,1.45716 0.42293,0.36776 0.988063,0.56757 1.548164,0.54736 0.453301,-0.0164 0.896524,-0.17254 1.277803,-0.41826 0.381278,-0.24572 0.702202,-0.57869 0.96058,-0.9515 0.207683,-0.29967 0.376573,-0.62619 0.501129,-0.96885"
       id="path1748"
       inkscape:connector-curvature="0"
       inkscape:path-effect="#path-effect1750"
       inkscape:original-d="m 64.712635,158.72143 c 0.768662,0.67904 1.537062,1.33608 2.305198,2.00452 0.768136,0.66844 1.49252,-0.91344 2.238383,-1.36976 0.745863,-0.45632 0.334351,-0.64617 0.501129,-0.96885" />
    <path
       style="fill:none;stroke:#000000;stroke-width:0.26458332px;stroke-linecap:butt;stroke-linejoin:miter;stroke-opacity:1"
       d="m 68.086911,156.85054 c -0.02879,0.55591 0.182893,1.12018 0.57021,1.51999 0.387318,0.39981 0.944585,0.62929 1.501128,0.61816 0.476004,-0.01 0.946647,-0.19272 1.303821,-0.50752 0.357174,-0.31479 0.598048,-0.75869 0.667293,-1.22973"
       id="path1752"
       inkscape:connector-curvature="0"
       inkscape:path-effect="#path-effect1754"
       inkscape:original-d="m 68.086911,156.85054 c 0.690711,0.71245 1.381157,1.42517 2.071338,2.13815 0.690182,0.71299 1.314342,-1.15843 1.971114,-1.73725" />
    <path
       style="fill:none;stroke:#000000;stroke-width:0.26458332px;stroke-linecap:butt;stroke-linejoin:miter;stroke-opacity:1"
       d="m 70.492336,155.81487 c 0.04899,0.39401 0.246924,0.76768 0.545351,1.02956 0.298427,0.26189 0.694643,0.40961 1.091676,0.40701 0.440235,-0.003 0.87239,-0.1893 1.193063,-0.49094 0.320672,-0.30164 0.53091,-0.71318 0.611007,-1.14608 0.05094,-0.27529 0.05094,-0.55993 0,-0.83522"
       id="path1756"
       inkscape:connector-curvature="0"
       inkscape:path-effect="#path-effect1758"
       inkscape:original-d="m 70.492336,155.81487 c 0.545941,0.47859 1.091615,0.95745 1.637027,1.43657 0.54541,0.47912 1.202976,-1.09161 1.80407,-1.63702 0.601091,-0.54541 2.64e-4,-0.55708 0,-0.83522" />
    <path
       style="fill:none;stroke:#000000;stroke-width:0.26458332px;stroke-linecap:butt;stroke-linejoin:miter;stroke-opacity:1"
       d="m 72.663901,153.67671 c 0.09851,0.41659 0.369158,0.7897 0.734585,1.01267 0.365427,0.22298 0.82101,0.293 1.236529,0.19005 0.474193,-0.11748 0.887027,-0.46104 1.0887,-0.906 0.201673,-0.44496 0.187897,-0.98187 -0.03633,-1.4159"
       id="path1760"
       inkscape:connector-curvature="0"
       inkscape:path-effect="#path-effect1762"
       inkscape:original-d="m 72.663901,153.67671 c 0.657304,0.40064 1.314342,0.80155 1.971114,1.20272 0.656773,0.40117 0.751959,-1.72081 1.052372,-2.3219"
       sodipodi:nodetypes="csc" />
    <path
       style="fill:none;stroke:#000000;stroke-width:0.26458332px;stroke-linecap:butt;stroke-linejoin:miter;stroke-opacity:1"
       d="m 74.367746,151.7056 c 0.173394,0.28761 0.428589,0.52528 0.727784,0.67781 0.299196,0.15254 0.641448,0.21944 0.976059,0.19082 0.305633,-0.0262 0.602434,-0.13074 0.865538,-0.28845 0.263103,-0.15771 0.493097,-0.36766 0.686934,-0.6054 0.387676,-0.47549 0.627707,-1.05366 0.817194,-1.63716 0.499494,-1.53813 0.681712,-3.17852 0.531946,-4.78877"
       id="path1768"
       inkscape:connector-curvature="0"
       inkscape:path-effect="#path-effect1770"
       inkscape:original-d="m 74.367746,151.7056 c 0.690711,0.3561 1.136158,0.57882 1.703843,0.86863 0.567682,0.2898 1.657212,-1.95218 2.369666,-2.53101 0.712454,-0.57881 -0.386552,-3.86138 0.531946,-4.78877"
       sodipodi:nodetypes="cccc" />
    <path
       style="fill:none;stroke:#000000;stroke-width:0.26458332px;stroke-linecap:butt;stroke-linejoin:miter;stroke-opacity:1"
       d="m 77.867724,136.99199 c -0.473814,0.72967 -0.792084,1.55981 -0.927511,2.41921 -0.127335,0.80806 -0.09317,1.64123 0.09989,2.43615"
       id="path1772"
       inkscape:connector-curvature="0"
       inkscape:path-effect="#path-effect1774"
       inkscape:original-d="m 77.867724,136.99199 c -8.867596,9.40213 -0.582023,1.57259 -0.927511,2.41921 -0.345487,0.84662 0.07788,1.71203 0.09989,2.43615"
       sodipodi:nodetypes="ccc" />
    <path
       style="fill:none;stroke:#000000;stroke-width:0.26458332px;stroke-linecap:butt;stroke-linejoin:miter;stroke-opacity:1"
       d="m 77.522683,141.49069 c -0.438127,0.18656 -0.805688,0.53385 -1.016781,0.9607 -0.222554,0.45003 -0.268394,0.98461 -0.125703,1.46595"
       id="path1776"
       inkscape:connector-curvature="0"
       inkscape:path-effect="#path-effect1778"
       inkscape:original-d="m 77.522683,141.49069 c -0.267004,0.60109 -0.749247,0.35908 -1.016781,0.9607 -0.267536,0.60163 -0.06976,1.10933 -0.125703,1.46595"
       sodipodi:nodetypes="ccc" />
    <path
       style="fill:none;stroke:#000000;stroke-width:0.26458332px;stroke-linecap:butt;stroke-linejoin:miter;stroke-opacity:1"
       d="m 76.338858,143.52047 c -0.407353,0.24063 -0.758556,0.57565 -1.018125,0.9712 -0.440075,0.67063 -0.605883,1.51565 -0.451858,2.30285"
       id="path1780"
       inkscape:connector-curvature="0"
       inkscape:path-effect="#path-effect1782"
       inkscape:original-d="m 76.338858,143.52047 c -0.31155,0.40064 -0.706046,0.57004 -1.018125,0.9712 -0.312078,0.40117 -0.273412,1.61214 -0.451858,2.30285"
       sodipodi:nodetypes="ccc" />
    <path
       style="fill:none;stroke:#000000;stroke-width:0.26458332px;stroke-linecap:butt;stroke-linejoin:miter;stroke-opacity:1"
       d="m 74.629096,146.51339 c 0.18463,0.16546 0.324632,0.38026 0.401485,0.61597 0.07685,0.23571 0.09037,0.49175 0.03875,0.73424 -0.06558,0.3081 -0.234382,0.58912 -0.455528,0.81344 -0.221147,0.22433 -0.493071,0.39424 -0.780595,0.52291 -0.215846,0.0966 -0.441181,0.17087 -0.656531,0.26857 -0.215349,0.0977 -0.423812,0.22168 -0.579589,0.3996 -0.191741,0.21899 -0.292478,0.51531 -0.273937,0.80579 0.01854,0.29048 0.156134,0.57158 0.374161,0.76442"
       id="path1784"
       inkscape:connector-curvature="0"
       inkscape:path-effect="#path-effect1786"
       inkscape:original-d="m 74.629096,146.51339 c -1.151685,-1.66033 0.373679,0.99359 0.440233,1.35021 0.06655,0.35663 -0.823818,0.89064 -1.236123,1.33635 -0.412306,0.44571 -0.823817,0.44518 -1.23612,0.66817 -0.412306,0.22299 0.06708,1.04654 0.100224,1.57021"
       sodipodi:nodetypes="ccccc" />
    <path
       style="fill:none;stroke:#000000;stroke-width:0.26458332px;stroke-linecap:butt;stroke-linejoin:miter;stroke-opacity:1"
       d="m 53.604244,153.2424 c 0.359201,0.61759 1.033285,1.04051 1.745644,1.09521 0.314958,0.0242 0.636023,-0.0188 0.944941,0.0472 0.286467,0.0612 0.545317,0.21272 0.785966,0.37974 0.240649,0.16702 0.469732,0.35232 0.725937,0.49433 0.527254,0.29224 1.170559,0.38524 1.748142,0.21261 0.405506,-0.1212 0.762304,-0.36261 1.119194,-0.5901 0.356891,-0.2275 0.731556,-0.44847 1.148661,-0.52021 0.388955,-0.0669 0.788718,0.001 1.17041,0.10138 0.381692,0.10036 0.755723,0.23341 1.144694,0.30022 0.546355,0.0939 1.108638,0.0542 1.653646,-0.0472 1.273132,-0.23681 2.481211,-0.81455 3.464737,-1.65694"
       id="path1819"
       inkscape:connector-curvature="0"
       inkscape:path-effect="#path-effect1821"
       inkscape:original-d="m 53.604244,153.2424 c 0.597895,0.37268 1.164026,0.72987 1.745644,1.09521 0.581618,0.36533 0.630224,0.0312 0.944941,0.0472 0.314714,0.016 1.0082,0.58245 1.511903,0.87407 0.503706,0.29162 1.165693,0.14147 1.748142,0.21261 0.582448,0.0711 1.512168,-0.74047 2.267855,-1.11031 0.755689,-0.36983 1.543669,0.26747 2.315104,0.4016 0.771438,0.13413 1.102696,-0.0318 1.653646,-0.0472 0.550952,-0.0155 2.31009,-1.10489 3.464737,-1.65694" />
    <path
       style="fill:none;stroke:#000000;stroke-width:0.26458332px;stroke-linecap:butt;stroke-linejoin:miter;stroke-opacity:1"
       d="m 52.40153,152.35707 c -0.352653,-0.13301 -0.666764,-0.36652 -0.895742,-0.66589 -0.228978,-0.29937 -0.372098,-0.66366 -0.408132,-1.03884 -0.02462,-0.2563 -3.02e-4,-0.51437 0.0091,-0.77168 0.0094,-0.2573 0.003,-0.52011 -0.07996,-0.76385 -0.07587,-0.22289 -0.212633,-0.42013 -0.363313,-0.60105 -0.150681,-0.18092 -0.316818,-0.34871 -0.46351,-0.53287 -0.44001,-0.55241 -0.689474,-1.23183 -0.874069,-1.91351 -0.185868,-0.68638 -0.314151,-1.3906 -0.566965,-2.05524 -0.210595,-0.55365 -0.506615,-1.07471 -0.874366,-1.53908"
       id="path1823"
       inkscape:connector-curvature="0"
       inkscape:path-effect="#path-effect1825"
       inkscape:original-d="m 52.40153,152.35707 c -0.442235,-0.56851 -0.868984,-1.13675 -1.303874,-1.70473 -0.434888,-0.56798 -0.04698,-1.02395 -0.07087,-1.53553 -0.02389,-0.51157 -0.550949,-0.75621 -0.826823,-1.13392 -0.27587,-0.37772 -0.582448,-1.27594 -0.874069,-1.91351 -0.291621,-0.63757 -0.377711,-1.37043 -0.566965,-2.05524 -0.189251,-0.68482 -0.543372,-0.996 -0.874366,-1.53908"
       sodipodi:nodetypes="ccscscc" />
    <path
       style="fill:none;stroke:#000000;stroke-width:0.26458332px;stroke-linecap:butt;stroke-linejoin:miter;stroke-opacity:1"
       d="m 47.406932,129.95654 c -0.106002,2.63758 -0.08052,5.28044 0.07633,7.91548 0.09899,1.6631 0.250287,3.32309 0.453583,4.97668"
       id="path1867"
       inkscape:connector-curvature="0"
       inkscape:path-effect="#path-effect1869"
       inkscape:original-d="m 47.406932,129.95654 c 0.02572,2.63823 0.05115,5.27672 0.07633,7.91548 0.02519,2.63876 0.138869,1.79512 0.453583,4.97668"
       sodipodi:nodetypes="ccc" />
    <path
       style="fill:none;stroke:#000000;stroke-width:0.26458332px;stroke-linecap:butt;stroke-linejoin:miter;stroke-opacity:1"
       d="m 71.30237,152.73095 c -0.08791,-0.24523 -0.102123,-0.51636 -0.04032,-0.76943 0.0618,-0.25308 0.199376,-0.48714 0.390425,-0.66425 0.205189,-0.19022 0.471364,-0.31361 0.749126,-0.34727"
       id="path1895"
       inkscape:connector-curvature="0"
       inkscape:path-effect="#path-effect1897"
       inkscape:original-d="m 71.30237,152.73095 c 0.127045,-0.31445 0.218076,-1.11976 0.350103,-1.43368 0.132027,-0.31393 0.33598,-0.23178 0.749126,-0.34727"
       sodipodi:nodetypes="ccc" />
    <path
       style="fill:none;stroke:#000000;stroke-width:0.26458332px;stroke-linecap:butt;stroke-linejoin:miter;stroke-opacity:1"
       d="m 58.241406,147.01432 c -0.630369,0.16048 -1.242099,0.39405 -1.819011,0.69453 -1.989445,1.0362 -3.532971,2.89698 -4.183724,5.04363"
       id="path1908"
       inkscape:connector-curvature="0"
       inkscape:path-effect="#path-effect1910"
       inkscape:original-d="m 58.241406,147.01432 c -0.617096,0.23125 -1.212409,0.46276 -1.819011,0.69453 -0.606602,0.23178 -3.874778,4.73468 -4.183724,5.04363"
       sodipodi:nodetypes="ccc" />
    <path
       sodipodi:nodetypes="ccc"
       inkscape:original-d="m 58.601074,146.91097 c -0.617096,0.23125 -1.572077,0.56611 -2.178679,0.79788 -0.606602,0.23178 -3.874778,4.73468 -4.183724,5.04363"
       inkscape:path-effect="#path-effect1931"
       inkscape:connector-curvature="0"
       id="path1929"
       d="m 58.601074,146.91097 c -0.75783,0.16587 -1.492967,0.43509 -2.178679,0.79788 -1.981027,1.0481 -3.51972,2.90305 -4.183724,5.04363"
       style="fill:none;stroke:#000000;stroke-width:0.26458332px;stroke-linecap:butt;stroke-linejoin:miter;stroke-opacity:1" />
    <path
       style="fill:none;stroke:#000000;stroke-width:0.26458332px;stroke-linecap:butt;stroke-linejoin:miter;stroke-opacity:1"
       d="m 57.856933,145.86917 c -1.879112,1.21222 -3.423149,2.93826 -4.419369,4.94028 -0.401292,0.80644 -0.715151,1.65636 -0.934308,2.53006"
       id="path1933"
       inkscape:connector-curvature="0"
       inkscape:path-effect="#path-effect1935"
       inkscape:original-d="m 57.856933,145.86917 c -2.529626,3.11117 -1.65904,2.64994 -4.419369,4.94028 -1.121988,0.89875 -0.490316,1.70574 -0.934308,2.53006"
       sodipodi:nodetypes="ccc"
       transform="translate(0.74414062,1.0417969)" />
    <path
       style="fill:none;stroke:#000000;stroke-width:0.26458332px;stroke-linecap:butt;stroke-linejoin:miter;stroke-opacity:1"
       d="m 61.921898,146.3497 c -1.874911,0.34672 -3.681584,1.05863 -5.289028,2.08412 -1.74404,1.11263 -3.251495,2.59417 -4.394199,4.31866"
       id="path1946"
       inkscape:connector-curvature="0"
       inkscape:path-effect="#path-effect1948"
       inkscape:original-d="m 61.921898,146.3497 c -0.617096,0.23125 -4.682426,1.85235 -5.289028,2.08412 -0.606602,0.23178 -4.085253,4.00971 -4.394199,4.31866"
       sodipodi:nodetypes="ccc"
       transform="matrix(-1,0,0,1,123.49427,-0.51264)" />
    <path
       transform="matrix(-1,0,0,1,122.75013,0.5291569)"
       sodipodi:nodetypes="csc"
       inkscape:original-d="m 61.177758,145.3079 c 143.663052,-12.90041 -4.239134,3.42787 -4.857906,3.62486 -3.202995,1.01969 -2.740115,2.88257 -3.436543,4.36135"
       inkscape:path-effect="#path-effect1952"
       inkscape:connector-curvature="0"
       id="path1950"
       d="m 61.177758,145.3079 c -1.774668,0.97891 -3.414251,2.20233 -4.857906,3.62486 -1.321832,1.30249 -2.479371,2.77153 -3.436543,4.36135"
       style="fill:none;stroke:#000000;stroke-width:0.26458332px;stroke-linecap:butt;stroke-linejoin:miter;stroke-opacity:1" />
    <path
       style="fill:#000000;fill-opacity:1;stroke:#000000;stroke-width:0.21129686;stroke-linecap:round;stroke-linejoin:round;stroke-miterlimit:4;stroke-dasharray:none;stroke-opacity:1;paint-order:fill markers stroke"
       d="m 225.00051,616.5479 c -1.6405,-0.17303 -3.27676,-0.82835 -4.66732,-1.86926 -0.72126,-0.53992 -1.66091,-1.50057 -2.119,-2.16638 l -0.14114,-0.20513 0.22693,-0.0943 c 0.19486,-0.081 0.22347,-0.10812 0.20242,-0.192 -0.0307,-0.12225 -0.36853,-0.86031 -0.3938,-0.86031 -0.0102,0 -0.13336,0.0507 -0.27359,0.11276 -0.14023,0.062 -0.27857,0.10371 -0.30741,0.0926 -0.13577,-0.0521 -0.77911,-1.71716 -0.91193,-2.36019 -0.0313,-0.15173 -0.0679,-0.27509 -0.0813,-0.27411 -0.0134,9.7e-4 -0.23312,0.0472 -0.48835,0.10273 -0.34184,0.0744 -0.46771,0.12001 -0.478,0.1733 -0.0393,0.20385 0.44998,1.68451 0.79662,2.41053 l 0.15466,0.32394 -0.1151,0.0439 c -0.25261,0.0963 -1.38881,0.35528 -1.99336,0.45437 -1.80102,0.29519 -3.77855,0.26338 -5.56847,-0.0896 -2.02613,-0.39952 -3.98709,-1.23559 -5.554,-2.36799 -2.78021,-2.00925 -4.21447,-4.81216 -4.11188,-8.03565 0.0294,-0.92296 0.11481,-1.44369 0.41064,-2.50309 0.024,-0.0859 -0.0133,-0.10765 -0.40837,-0.23851 -0.23911,-0.0792 -0.45846,-0.15271 -0.48744,-0.16336 -0.11737,-0.0431 -0.42662,1.23929 -0.50335,2.08736 -0.0264,0.29169 -0.0612,0.61468 -0.0774,0.71778 l -0.0294,0.18744 -0.50823,-0.34331 c -1.20883,-0.81657 -1.97339,-1.44925 -3.05326,-2.5266 -1.07817,-1.07566 -1.76465,-1.90506 -2.55257,-3.08402 -1.95123,-2.91961 -3.15144,-6.44331 -3.39289,-9.9612 l -0.0292,-0.42584 0.28238,-0.0299 c 0.39652,-0.042 1.05578,-0.16128 1.05578,-0.19105 0,-0.0612 -0.23751,-0.91953 -0.26248,-0.94862 -0.0154,-0.0179 -0.19625,-5.7e-4 -0.402,0.0385 -0.54635,0.10365 -1.46944,0.0622 -2.02281,-0.0907 -1.5734,-0.435 -2.93252,-1.71505 -3.89902,-3.67221 -0.55871,-1.13138 -0.96895,-2.77074 -0.97053,-3.87829 l -3.6e-4,-0.25486 0.20992,0.10578 c 0.31457,0.15852 1.00153,0.40659 1.42429,0.51435 0.36296,0.0925 1.1786,0.21843 1.42624,0.22019 l 0.12153,8.8e-4 v -0.52401 -0.52402 l -0.34251,-0.0246 c -0.74424,-0.0534 -1.57096,-0.29658 -2.3133,-0.68036 l -0.46819,-0.24206 0.0635,-0.40565 c 0.0946,-0.60363 0.29382,-1.33635 0.52546,-1.93228 0.11328,-0.29142 0.1979,-0.53793 0.18805,-0.54778 -0.01,-0.01 -0.21668,-0.1081 -0.45962,-0.21833 l -0.4417,-0.20042 -0.0984,0.19317 c -0.15207,0.29869 -0.47606,1.27894 -0.5849,1.76967 -0.12892,0.58129 -0.12221,0.5636 -0.19779,0.52131 -0.11668,-0.0653 -0.59938,-0.64693 -0.87081,-1.04928 -1.33157,-1.97388 -1.64225,-4.53145 -0.87236,-7.18141 0.46109,-1.58704 1.35372,-3.22646 2.54635,-4.67666 0.40231,-0.4892 0.41467,-0.51068 0.33616,-0.58417 -0.0448,-0.042 -0.21614,-0.19935 -0.38068,-0.34974 l -0.29917,-0.27345 -0.24562,0.27805 c -0.13509,0.15292 -0.4068,0.49184 -0.6038,0.75313 -0.197,0.2613 -0.37114,0.47509 -0.38697,0.47509 -0.0583,0 -0.53287,-1.80121 -0.74529,-2.82843 -1.14812,-5.55232 -0.86288,-11.18414 0.84274,-16.6391 0.24161,-0.77273 0.78891,-2.27604 0.82858,-2.27594 0.0136,3e-5 0.17622,0.24365 0.36127,0.54137 1.20336,1.93605 1.97279,3.70275 2.65129,6.08769 0.12102,0.42537 0.4587,1.73794 0.75041,2.91682 0.78766,3.1831 1.11694,4.30109 1.70518,5.78944 0.76249,1.92925 1.6743,3.44143 2.93127,4.86136 1.47485,1.66605 1.81037,2.10135 2.16302,2.80633 0.52464,1.04877 0.59507,1.66461 0.51556,4.5078 -0.0422,1.51105 -0.0176,1.9451 0.15668,2.75666 0.23136,1.07749 0.78348,2.28697 1.44498,3.16536 0.71639,0.9513 1.73642,1.81806 2.75909,2.34451 l 0.3281,0.1689 -0.17951,0.54225 c -0.0987,0.29824 -0.16861,0.55315 -0.1553,0.56646 0.0566,0.0566 0.93604,0.29286 0.96568,0.25945 0.0179,-0.0202 0.14266,-0.36482 0.27724,-0.76588 1.88429,-5.61539 5.58393,-10.86893 10.35249,-14.70067 2.77692,-2.23137 5.85775,-3.9364 9.16339,-5.07131 0.39726,-0.13639 0.74258,-0.24798 0.76736,-0.24798 0.0248,0 -0.14115,0.14203 -0.36874,0.31563 -2.63317,2.00842 -5.28364,4.53265 -7.47782,7.12165 -4.12082,4.86231 -7.23088,10.50177 -9.13263,16.56016 -0.23398,0.74537 -0.75183,2.58663 -0.75183,2.67316 0,0.0411 0.96862,0.31196 0.99371,0.27793 0.005,-0.007 0.0739,-0.26077 0.15319,-0.56461 0.16702,-0.63984 0.56888,-2.00551 0.71991,-2.44651 l 0.1038,-0.3031 0.18485,0.23961 c 0.26116,0.33851 1.16205,1.20534 1.56557,1.50637 0.9754,0.72768 2.0293,1.23458 3.19293,1.53572 0.82755,0.21417 1.33419,0.26514 3.05159,0.30699 1.3328,0.0325 1.65223,0.053 1.96688,0.12611 1.00844,0.23443 1.77683,0.64922 3.54676,1.91459 1.2576,0.89909 1.67811,1.16809 2.35856,1.50874 1.27659,0.63911 2.51195,0.94857 3.94998,0.9895 1.2824,0.0365 2.31876,-0.14004 3.43382,-0.58496 0.90236,-0.36005 1.56623,-0.72328 3.11396,-1.70377 2.23046,-1.41301 3.15537,-1.87238 4.32365,-2.14742 0.3692,-0.0869 0.62741,-0.11408 1.25987,-0.1325 1.31386,-0.0383 2.14289,0.10804 4.59619,0.81111 2.05691,0.58947 2.70841,0.739 3.8007,0.87235 3.71025,0.45294 8.88402,-0.64686 13.20171,-2.80632 1.82011,-0.91031 3.80679,-2.18792 5.24936,-3.3758 0.1823,-0.15011 0.35625,-0.28744 0.38655,-0.30517 0.0596,-0.0349 0.439,0.52536 1.24626,1.83999 0.25,0.40714 0.47088,0.74026 0.49083,0.74026 0.02,0 0.22545,-0.11366 0.45665,-0.25258 l 0.42037,-0.25258 -0.0938,-0.15621 c -1.32551,-2.20679 -3.09752,-4.82541 -4.7905,-7.07928 -6.19331,-8.24515 -13.95546,-15.36255 -22.71986,-20.83267 -0.53996,-0.337 -0.97627,-0.6182 -0.96958,-0.62488 0.007,-0.007 0.27942,0.0582 0.60608,0.14421 12.83851,3.38003 23.93499,11.10527 31.54013,21.95787 l 0.58635,0.83675 4.5e-4,0.3123 c 4.8e-4,0.45351 0.19029,1.51232 0.30413,1.69651 0.0259,0.0419 0.14484,0.0158 0.49457,-0.10828 0.25327,-0.0899 0.46789,-0.16921 0.47692,-0.1763 0.009,-0.007 -0.0253,-0.16791 -0.0762,-0.35738 -0.61807,-2.29843 0.598,-4.63884 2.84245,-5.47046 0.48069,-0.17811 0.49907,-0.17807 0.57393,10e-4 0.17281,0.41359 1.01877,1.50859 1.13517,1.46934 0.0446,-0.015 0.65686,-0.70775 0.65686,-0.74314 0,-0.0135 -0.10667,-0.14016 -0.23704,-0.28136 -0.71208,-0.77126 -1.08798,-1.9041 -0.96471,-2.90728 0.14335,-1.16638 0.75735,-2.1248 1.80574,-2.81863 0.4983,-0.32978 1.163,-0.64314 2.4454,-1.15282 2.06629,-0.82123 3.18489,-1.49747 4.24264,-2.56483 1.41769,-1.43058 2.1338,-3.29497 1.95013,-5.07718 -0.0861,-0.83528 -0.34268,-1.66928 -0.71053,-2.30945 -0.1488,-0.25895 -0.18067,-0.3666 -0.24862,-0.83968 -0.10487,-0.73023 -0.10627,-2.14794 -0.003,-2.90209 0.37247,-2.71663 1.58813,-5.0638 3.55939,-6.87239 0.37612,-0.34509 1.06124,-0.88949 1.08206,-0.85981 0.006,0.008 0.0457,0.16801 0.0883,0.35459 l 0.0775,0.33923 0.22902,-0.0688 c 0.12596,-0.0379 0.34835,-0.10329 0.49419,-0.14542 0.16965,-0.049 0.26249,-0.0987 0.25775,-0.13784 -0.004,-0.0337 -0.0476,-0.24022 -0.0968,-0.45898 -0.24041,-1.07038 -0.21689,-2.20305 0.0688,-3.31456 0.5031,-1.95722 1.86777,-3.64116 3.69415,-4.55842 0.23352,-0.11728 0.38427,-0.21861 0.37203,-0.25006 -0.18543,-0.47661 -0.37429,-0.86967 -0.41804,-0.87003 -0.0712,-5.7e-4 -0.91219,0.43416 -1.14023,0.5894 l -0.17447,0.11877 -0.0307,-0.16648 c -0.076,-0.41266 -0.25474,-1.67542 -0.30822,-2.17732 -0.0916,-0.85935 -0.0784,-3.50074 0.0221,-4.41941 0.29938,-2.73813 1.05451,-5.37779 2.21877,-7.75608 0.29889,-0.61055 0.94234,-1.79311 1.02051,-1.87554 0.0101,-0.0107 0.32123,0.0534 0.69138,0.14235 0.37014,0.0889 0.94147,0.20364 1.26961,0.25487 0.32814,0.0512 0.63833,0.10113 0.68932,0.11091 0.0927,0.0178 0.0927,0.0187 0.12292,2.9686 0.10214,9.9692 0.42752,20.36061 0.87841,28.0531 0.29121,4.96816 -0.0822,9.23297 -1.20491,13.76299 -1.01652,4.10144 -2.2866,7.08398 -3.83126,8.99701 -0.39469,0.48882 -1.21566,1.30642 -1.62633,1.61966 -0.75116,0.57295 -1.66017,1.05874 -2.45277,1.31081 -2.0262,0.64437 -4.18042,0.27873 -5.84322,-0.9918 -0.51082,-0.39032 -1.23226,-1.18666 -1.51887,-1.67657 -0.0445,-0.0761 -0.0802,-0.0628 -0.49761,0.18506 l -0.44967,0.26701 0.16972,0.26163 c 0.77753,1.19865 2.06727,2.25434 3.38877,2.77381 0.46134,0.18134 1.06362,0.361 1.3584,0.40521 l 0.2055,0.0308 0.13424,0.37101 c 0.23406,0.64686 0.32623,1.19342 0.32714,1.9399 0.001,1.00952 -0.15975,1.69367 -0.60252,2.56076 -0.28496,0.55804 -0.6237,1.0072 -1.11946,1.48432 -0.93762,0.90239 -2.03559,1.41145 -3.3306,1.54418 -0.52989,0.0543 -1.19324,0.0187 -1.19324,-0.0641 0,-0.0372 -0.05,-0.0446 -0.16573,-0.0244 -0.30529,0.0531 -1.06172,-0.16841 -1.73462,-0.50792 -1.29819,-0.65499 -2.33406,-1.8769 -2.78813,-3.28891 -0.0664,-0.20647 -0.14024,-0.3819 -0.16409,-0.38985 -0.0406,-0.0135 -0.44161,0.0699 -0.81228,0.16896 l -0.16266,0.0435 0.0881,0.31953 c 0.29147,1.05706 0.9666,2.16305 1.81522,2.97371 0.8192,0.78255 1.7341,1.29167 2.93705,1.63439 0.15061,0.0429 0.10446,1.46292 -0.0761,2.34055 -0.59086,2.87231 -2.69805,5.04871 -5.35127,5.52704 -0.5508,0.0993 -1.46773,0.089 -2.01535,-0.0226 -1.16175,-0.23675 -2.10413,-0.73069 -2.90711,-1.52372 -0.82179,-0.81161 -1.39634,-1.86803 -1.599,-2.94005 l -0.0756,-0.39988 -0.13441,0.003 c -0.0739,0.002 -0.30344,0.0267 -0.51005,0.0553 l -0.37565,0.0519 0.0138,0.15468 c 0.0485,0.54248 0.32369,1.38574 0.68435,2.09673 0.78401,1.54555 2.17418,2.74198 3.83093,3.29705 0.4247,0.14228 1.18576,0.30727 1.41743,0.30727 0.12147,0 0.12956,0.01 0.10266,0.12153 -0.16604,0.69098 -0.58784,1.63052 -1.02675,2.28705 -1.36417,2.04056 -3.73444,3.24844 -6.17888,3.14874 -0.66666,-0.0272 -1.22223,-0.11285 -1.19024,-0.18351 0.19174,-0.42361 0.51358,-1.22722 0.52274,-1.30523 0.0108,-0.092 -0.034,-0.11933 -0.44818,-0.27361 -0.2531,-0.0943 -0.46468,-0.16636 -0.47019,-0.16019 -0.006,0.006 -0.0999,0.23 -0.20977,0.49737 -0.34938,0.85028 -0.42454,0.99285 -0.50832,0.96424 -0.23348,-0.0797 -1.09466,-0.52236 -1.37885,-0.7087 -1.07702,-0.70616 -1.96726,-1.73033 -2.51702,-2.89573 -0.43964,-0.93196 -0.65539,-1.81296 -0.69672,-2.84504 l -0.025,-0.62388 -0.48657,-0.0308 c -0.55786,-0.0353 -0.56003,-0.0341 -0.56049,0.30627 -0.002,1.1985 0.32497,2.61343 0.85546,3.70616 0.83144,1.71268 2.30709,3.14802 3.97069,3.86224 0.21213,0.0911 0.38603,0.18547 0.38644,0.20977 10e-4,0.0686 -0.53759,0.91192 -0.89996,1.40868 -2.55488,3.5025 -6.22395,5.20769 -9.66887,4.49358 -0.43232,-0.0896 -1.00896,-0.25521 -1.062,-0.30496 -0.0171,-0.0161 0.0685,-0.31737 0.19036,-0.66958 0.12181,-0.35222 0.28855,-0.87119 0.37052,-1.15329 0.14744,-0.50731 0.46461,-1.86595 0.46461,-1.99015 0,-0.0475 -0.12827,-0.0856 -0.49082,-0.1459 -0.52319,-0.087 -0.56751,-0.0774 -0.56916,0.12327 -0.003,0.30825 -0.55203,2.3131 -0.83944,3.06274 l -0.13832,0.36078 -0.3401,-0.19121 c -1.89874,-1.06749 -3.36069,-3.10681 -3.80684,-5.31026 -0.05,-0.24688 -0.0909,-0.50708 -0.0909,-0.5782 0,-0.0711 -0.009,-0.13849 -0.0204,-0.1497 -0.025,-0.025 -0.99153,0.0747 -1.02231,0.10551 -0.0382,0.0382 0.11131,0.87315 0.24945,1.3935 0.62228,2.34402 2.25695,4.42926 4.33844,5.53428 l 0.29695,0.15764 -0.25711,0.52846 c -0.54793,1.12623 -1.34983,2.40065 -2.11482,3.361 -0.45623,0.57272 -1.3874,1.51479 -1.91217,1.93454 -2.38938,1.91119 -5.235,2.55231 -7.67316,1.72873 -0.85379,-0.2884 -1.84337,-0.87673 -2.50488,-1.48921 l -0.30006,-0.27782 0.17409,-0.33146 c 0.25671,-0.48875 0.56197,-1.28464 0.71297,-1.8589 0.19252,-0.73215 0.21263,-0.68016 -0.29741,-0.76882 -0.23699,-0.0412 -0.46226,-0.0836 -0.50058,-0.0942 -0.0552,-0.0153 -0.0857,0.0553 -0.14687,0.33987 -0.088,0.40958 -0.32667,1.11765 -0.51957,1.54152 l -0.13109,0.28807 -0.1102,-0.17678 c -0.43692,-0.70094 -0.83988,-1.74406 -0.9731,-2.51907 -0.0418,-0.24306 -0.0774,-0.44526 -0.0792,-0.44931 -0.005,-0.0103 -0.72412,0.0671 -0.89189,0.0959 l -0.13738,0.0236 0.0616,0.38453 c 0.183,1.14285 0.67378,2.36635 1.31796,3.28566 l 0.23631,0.33724 -0.24538,0.3267 c -1.616,2.15153 -4.11026,3.37854 -6.80607,3.34813 -0.28656,-0.003 -0.67781,-0.0224 -0.86943,-0.0426 z"
       id="path2038"
       inkscape:connector-curvature="0"
       transform="scale(0.26458333)" />
    <path
       style="fill:#000000;fill-rule:nonzero;stroke:none;stroke-width:0.26458332px;stroke-linecap:butt;stroke-linejoin:miter;stroke-opacity:1"
       d="m 57.852799,147.21276 c -0.0087,0.001 -0.01605,0.004 -0.02253,0.008 -0.0059,0.004 -0.01083,0.008 -0.01564,0.0134 -0.0045,0.005 -0.0084,0.0105 -0.01304,0.0166 -0.0042,0.006 -0.0088,0.0114 -0.01445,0.0169 -0.0014,0.001 -0.0028,0.003 -0.0043,0.005 -0.0015,0.002 -0.0031,0.004 -0.0047,0.007 -0.0032,0.005 -0.0067,0.0111 -0.0102,0.0178 -0.0066,0.0128 -0.01341,0.0284 -0.01736,0.0424 -0.0019,0.007 -0.0033,0.0138 -0.0034,0.0201 -5.4e-5,0.003 2.08e-4,0.006 0.0011,0.01 8.98e-4,0.003 0.0025,0.007 0.0054,0.01 0.0029,0.003 0.0066,0.005 0.01075,0.006 0.004,9e-4 0.0081,7.8e-4 0.01211,6e-5 0.0078,-0.001 0.01656,-0.005 0.02648,-0.0114 0.0013,-8e-4 0.0024,-0.002 0.0034,-0.002 9.77e-4,-7e-4 0.002,-0.001 0.0031,-0.002 0.0021,-0.002 0.0045,-0.004 0.0072,-0.006 0.0053,-0.005 0.01184,-0.0114 0.01914,-0.0191 0.01428,-0.0149 0.03177,-0.0344 0.04841,-0.0543 0.01601,-0.0191 0.03207,-0.0396 0.04284,-0.0561 0.0027,-0.004 0.0052,-0.008 0.0074,-0.0122 0.0021,-0.004 0.0041,-0.008 0.0056,-0.0123 0.0013,-0.004 0.003,-0.01 0.0023,-0.0166 -3.71e-4,-0.004 -0.0015,-0.008 -0.0042,-0.0126 -0.0028,-0.005 -0.0068,-0.008 -0.01154,-0.0109 -0.0058,-0.003 -0.01213,-0.005 -0.01874,-0.005 -0.0065,-2.1e-4 -0.01243,0.001 -0.01764,0.003 -0.01,0.004 -0.01849,0.01 -0.0253,0.0162 -0.01356,0.0123 -0.02655,0.0298 -0.03809,0.0463 -0.01169,0.0168 -0.0229,0.034 -0.03244,0.0467 -0.0048,0.006 -0.009,0.0113 -0.01214,0.0142 -0.0015,0.001 -0.0027,0.002 -0.0031,0.002 -2.44e-4,-2e-5 -6.5e-5,-9.2e-4 0.0026,-0.003 0.0029,-0.001 0.0062,-0.003 0.01034,-0.004 0.0042,-8e-4 0.0094,-0.001 0.01502,2.2e-4 0.0057,0.001 0.01089,0.004 0.01522,0.007 0.0042,0.003 0.0071,0.007 0.0091,0.01 0.0037,0.006 0.005,0.0108 0.0055,0.013 5.66e-4,0.002 8.15e-4,0.005 9.17e-4,0.006 2.56e-4,0.002 3.64e-4,0.002 7.33e-4,0.002 3.22e-4,-3.3e-4 8.47e-4,-0.001 0.0015,-0.003 0.0031,-0.007 0.0072,-0.0161 0.01446,-0.0283 0.0069,-0.0116 0.01492,-0.0228 0.02348,-0.0314 0.0087,-0.009 0.01583,-0.0122 0.01916,-0.0121 6.41e-4,-2e-4 -0.0018,0.001 -0.0056,0.002 -0.0018,5e-4 -0.0056,0.001 -0.01067,0.002 -0.0026,1.6e-4 -0.0066,2e-4 -0.01131,-5.5e-4 -0.0047,-7.4e-4 -0.01155,-0.002 -0.01886,-0.007 -0.0078,-0.005 -0.01507,-0.0118 -0.01993,-0.0215 -0.0047,-0.009 -0.0058,-0.0183 -0.0056,-0.025 1.49e-4,-0.007 0.0015,-0.0117 0.0025,-0.0151 0.0011,-0.003 0.0024,-0.006 0.0033,-0.008 0.0018,-0.004 0.0037,-0.006 0.0046,-0.007 0.0011,-0.001 0.002,-0.003 0.0026,-0.003 0.0026,-0.003 0.003,-0.004 0.0034,-0.004 3e-4,-4.5e-4 2.07e-4,-5.6e-4 -4.8e-5,-5.3e-4 -9.52e-4,1.2e-4 -0.0047,0.002 -0.0086,0.005 -0.0082,0.005 -0.02036,0.0139 -0.03306,0.0246 -0.01237,0.0104 -0.02707,0.0242 -0.03928,0.0401 -0.0062,0.008 -0.01251,0.0177 -0.01755,0.0286 -0.005,0.0109 -0.0095,0.0248 -0.01006,0.041 -3.6e-5,0.008 0.0013,0.0169 0.0053,0.0262 0.004,0.009 0.0098,0.0171 0.01643,0.0232 0.01251,0.0114 0.02585,0.015 0.03224,0.0163 0.0121,0.002 0.02231,9.2e-4 0.0242,6.7e-4 0.0037,-4.9e-4 0.007,-0.001 0.0087,-0.002 0.002,-4.3e-4 0.0038,-8.7e-4 0.0053,-0.001 0.0056,-0.001 0.01064,-0.003 0.01575,-0.004 0.01046,-0.003 0.02248,-0.008 0.03474,-0.0122 0.01211,-0.005 0.02426,-0.009 0.03337,-0.0123 0.0046,-0.002 0.0085,-0.003 0.01119,-0.004 0.0013,-3.3e-4 0.0025,-5.5e-4 0.003,-5e-4 2.57e-4,2e-5 4.33e-4,1.2e-4 1.73e-4,3.9e-4 -1.26e-4,1.3e-4 -4.04e-4,3.5e-4 -0.0011,7.2e-4 -3.25e-4,1.8e-4 -8.87e-4,4.7e-4 -0.0018,8.7e-4 -4.18e-4,1.9e-4 -0.0027,0.001 -0.0064,0.002 0.01603,-0.005 0.02702,-0.0122 0.0326,-0.0164 0.0062,-0.005 0.01126,-0.009 0.01448,-0.0124 0.0072,-0.007 0.0116,-0.0117 0.01467,-0.0143 0.0015,-0.001 0.0027,-0.002 0.0029,-0.001 1.09e-4,3.4e-4 -1.87e-4,0.003 -0.0056,0.009 -0.002,0.002 -0.0088,0.01 -0.02071,0.0165 -0.0063,0.004 -0.01711,0.008 -0.03157,0.0103 -0.01562,0.002 -0.03441,1.9e-4 -0.05282,-0.009 -0.01783,-0.009 -0.0291,-0.0221 -0.03574,-0.0325 -0.0064,-0.01 -0.0095,-0.0192 -0.01114,-0.0248 -0.003,-0.0105 -0.0036,-0.0196 -0.0037,-0.0221 -0.0013,-0.0231 0.0085,-0.0416 0.01724,-0.0527 0.0076,-0.01 0.01162,-0.0116 0.0091,-0.0119 -0.0016,-1.7e-4 -0.0084,0.002 -0.01752,0.005 -0.0084,0.004 -0.02445,0.011 -0.04013,0.0253 -0.0071,0.006 -0.0136,0.016 -0.01486,0.0179 -0.0024,0.003 -0.0043,0.007 -0.0052,0.008 -0.0023,0.004 -0.0029,0.005 -0.004,0.007 -0.0016,0.002 -0.0027,0.004 -0.0035,0.004 -0.0016,0.001 -0.0031,0.002 -0.0028,-7.6e-4 1.2e-4,-0.001 7.44e-4,-0.004 0.0028,-0.008 0.0015,-0.003 0.0065,-0.0121 0.0173,-0.0222 0.0056,-0.005 0.01553,-0.0134 0.0301,-0.0198 0.01543,-0.007 0.03745,-0.0122 0.06325,-0.008 0.02632,0.004 0.04666,0.0164 0.06049,0.029 0.01299,0.0119 0.0205,0.0241 0.02445,0.0316 0.01262,0.0243 0.01209,0.0457 0.01189,0.0515 -2.94e-4,0.009 -9.84e-4,0.0111 -6.19e-4,0.0113 4.67e-4,3.3e-4 0.0051,-0.008 0.0099,-0.0157 0.006,-0.01 0.01078,-0.0168 0.01683,-0.0259 0.0024,-0.004 0.006,-0.009 0.0089,-0.0142 0.0013,-0.002 0.0044,-0.008 0.0075,-0.0154 0.0012,-0.003 0.0049,-0.0124 0.0071,-0.0251 0.0011,-0.006 0.0028,-0.0191 0.0011,-0.0353 -9.45e-4,-0.009 -0.0031,-0.0202 -0.0083,-0.0332 -0.0053,-0.0133 -0.01414,-0.0288 -0.02836,-0.043 l 0.0096,0.0107 c -0.01459,-0.0183 -0.03224,-0.0301 -0.04874,-0.0373 -0.01582,-0.007 -0.03012,-0.009 -0.04022,-0.0102 -0.01902,-0.002 -0.03389,0.001 -0.04008,0.003 -0.01324,0.003 -0.023,0.008 -0.02561,0.009 -0.0071,0.003 -0.0128,0.007 -0.01429,0.008 -0.0045,0.003 -0.0087,0.005 -0.01125,0.007 -0.0061,0.004 -0.01273,0.008 -0.02007,0.0137 -0.01542,0.0109 -0.03464,0.0253 -0.05359,0.0398 -0.02063,0.0158 -0.04117,0.0319 -0.05819,0.0457 -0.0092,0.007 -0.01758,0.0144 -0.02485,0.0207 -0.0073,0.006 -0.01492,0.0131 -0.02155,0.0197 0,0 0.09353,0.0936 0.09353,0.0936 0,0 0.09353,0.0935 0.09353,0.0935 -7.57e-4,7.6e-4 0.0029,-0.003 0.0082,-0.008 0.0051,-0.005 0.01168,-0.0103 0.01966,-0.0171 0.01494,-0.0127 0.03308,-0.0279 0.05219,-0.0436 0.01907,-0.0157 0.0329,-0.0269 0.04713,-0.0386 0.0054,-0.004 0.011,-0.009 0.01239,-0.0103 8.74e-4,-8.2e-4 8.31e-4,-9e-4 -0.002,7e-4 -1.37e-4,8e-5 -0.0055,0.003 -0.01172,0.006 -0.0023,0.001 -0.01183,0.006 -0.02488,0.009 -0.0061,0.001 -0.02089,0.005 -0.03986,0.003 -0.01007,-8.6e-4 -0.02435,-0.003 -0.04015,-0.0102 -0.01648,-0.007 -0.03411,-0.019 -0.04869,-0.0373 l 0.0096,0.0107 c -0.01419,-0.0142 -0.02297,-0.0296 -0.02828,-0.0428 -0.0052,-0.013 -0.0073,-0.0246 -0.0083,-0.0331 -0.0018,-0.0161 -5e-6,-0.0288 0.001,-0.0348 0.0021,-0.0123 0.0056,-0.0209 0.0065,-0.0233 0.0027,-0.007 0.0045,-0.009 0.0047,-0.009 0.0011,-0.001 -4.43e-4,0.002 -0.0022,0.006 -0.0037,0.008 -0.01027,0.0211 -0.01735,0.0367 -0.0062,0.0137 -0.0148,0.0338 -0.02067,0.0549 -0.0028,0.0102 -0.0063,0.0249 -0.0073,0.0416 -8.83e-4,0.0148 -7.2e-4,0.0438 0.01485,0.074 0.0045,0.009 0.01253,0.0215 0.02605,0.0339 0.01436,0.0131 0.03525,0.0258 0.06215,0.0299 0.02637,0.004 0.04899,-0.001 0.06502,-0.009 0.01516,-0.007 0.02572,-0.0152 0.03195,-0.021 0.01193,-0.0111 0.01842,-0.0221 0.02114,-0.0269 0.0033,-0.006 0.0053,-0.011 0.0066,-0.0146 0.0025,-0.007 0.0037,-0.013 0.0038,-0.0156 4.2e-5,-0.001 -1.69e-4,-0.002 -0.0012,-0.001 -6.07e-4,6.7e-4 -0.0013,0.002 -0.0032,0.005 -6.64e-4,0.001 -0.0026,0.004 -0.0048,0.008 -0.0012,0.002 -0.0076,0.0114 -0.01823,0.021 -0.0066,0.005 -0.0085,0.003 -0.0082,0.002 0.0013,-0.002 0.0064,-0.005 0.01516,-0.0114 0.0067,-0.005 0.02267,-0.0154 0.03609,-0.0312 0.01567,-0.0184 0.0297,-0.0456 0.02847,-0.0795 -1.97e-4,-0.004 -7.8e-4,-0.0136 -0.004,-0.0249 -0.0017,-0.006 -0.0049,-0.0154 -0.01146,-0.0256 -0.0068,-0.0106 -0.01819,-0.0238 -0.03618,-0.0329 -0.01857,-0.009 -0.03755,-0.0113 -0.05337,-0.009 -0.01467,0.002 -0.02569,0.007 -0.03224,0.0106 -0.01239,0.007 -0.01979,0.0149 -0.02235,0.0178 -0.0061,0.007 -0.009,0.0127 -0.01002,0.0148 -0.0014,0.003 -0.0022,0.005 -0.0026,0.007 -9.21e-4,0.003 -8.98e-4,0.005 0.0013,0.004 0.0016,-7.6e-4 0.0028,-0.002 0.0073,-0.005 0.0031,-0.002 0.01199,-0.008 0.02458,-0.0118 -0.0027,8.7e-4 -0.005,0.002 -0.0055,0.002 -9.18e-4,4.2e-4 -0.0015,7.4e-4 -0.0019,9.4e-4 -7.74e-4,4.2e-4 -0.0013,7.4e-4 -0.0016,9.5e-4 -5.94e-4,4.2e-4 -0.0012,8.9e-4 -0.0015,0.001 -9.85e-4,8.2e-4 -0.0018,0.001 -0.0031,0.002 -0.0025,0.002 -0.0057,0.004 -0.0098,0.007 -0.008,0.005 -0.01854,0.0116 -0.02904,0.0179 -0.0092,0.006 -0.02185,0.013 -0.02719,0.0163 -0.003,0.002 -0.0056,0.004 -0.0046,0.004 2.9e-4,6e-5 8.42e-4,2e-5 0.002,-1.6e-4 1.5e-4,-2e-5 0.0039,-6.6e-4 0.0063,-9.6e-4 0.0012,-1.5e-4 0.01099,-0.002 0.0227,7.3e-4 0.0062,0.001 0.01943,0.005 0.03185,0.0161 0.0066,0.006 0.01238,0.0137 0.01633,0.023 0.0039,0.009 0.0053,0.0182 0.0052,0.026 -5.97e-4,0.006 -0.0024,0.008 -0.0027,0.007 -5.41e-4,-3.4e-4 4e-5,-0.003 0.0016,-0.006 0.0034,-0.007 0.01008,-0.0162 0.01796,-0.0255 0.0077,-0.009 0.01584,-0.0174 0.02159,-0.0236 0.0034,-0.004 0.0047,-0.005 0.0074,-0.008 5.76e-4,-6.7e-4 0.0012,-0.001 0.002,-0.002 -2.23e-4,2.5e-4 0.003,-0.003 0.0046,-0.005 6.44e-4,-7.7e-4 0.0016,-0.002 0.0027,-0.004 9.71e-4,-0.001 0.0029,-0.004 0.0047,-0.008 9.56e-4,-0.002 0.0022,-0.005 0.0033,-0.008 0.0011,-0.003 0.0024,-0.009 0.0026,-0.0151 1.54e-4,-0.007 -9.44e-4,-0.0157 -0.0056,-0.0251 -0.0049,-0.01 -0.01216,-0.0168 -0.01996,-0.0215 -0.0073,-0.004 -0.01422,-0.006 -0.0189,-0.007 -0.0047,-7.5e-4 -0.0087,-7.1e-4 -0.01136,-5.5e-4 -0.0051,3.1e-4 -0.009,0.001 -0.01083,0.002 -0.0039,0.001 -0.0065,0.002 -0.0075,0.003 -0.02335,0.0105 -0.04157,0.0293 -0.05432,0.0464 -0.01316,0.0177 -0.02311,0.0371 -0.03015,0.0542 -0.0071,0.0174 -0.0119,0.0338 -0.01416,0.0469 -5.81e-4,0.003 -0.001,0.007 -0.0013,0.0101 -2.71e-4,0.003 -4.75e-4,0.007 -2.31e-4,0.0115 1.22e-4,0.002 4.01e-4,0.005 0.0011,0.009 6.71e-4,0.003 0.0022,0.009 0.0062,0.0152 0.0021,0.003 0.0052,0.007 0.0096,0.0104 0.0045,0.003 0.0099,0.006 0.01589,0.007 0.0059,0.001 0.01131,0.001 0.01581,2.3e-4 0.0044,-8.3e-4 0.008,-0.002 0.01065,-0.004 0.0065,-0.004 0.0111,-0.008 0.01444,-0.011 0.0035,-0.004 0.0065,-0.007 0.0091,-0.0108 0.0052,-0.007 0.01018,-0.0153 0.01468,-0.0232 0.0094,-0.0164 0.01861,-0.0347 0.02766,-0.0513 0.0097,-0.0177 0.01765,-0.0308 0.0247,-0.0396 0.0033,-0.004 0.0054,-0.006 0.0049,-0.006 -3.28e-4,-1.4e-4 -0.0015,1e-5 -0.0033,-2.4e-4 -0.0019,-2.7e-4 -0.0037,-9.4e-4 -0.005,-0.002 -0.0034,-0.002 -0.0064,-0.005 -0.0084,-0.008 -0.002,-0.003 -0.0026,-0.006 -0.0027,-0.008 -0.0029,-0.04 0.0035,0.0314 7.02e-4,-0.004 6.3e-5,7.9e-4 -4e-4,0.003 -0.0014,0.005 -9.73e-4,0.003 -0.0024,0.006 -0.0042,0.009 -0.0075,0.0149 -0.02055,0.0348 -0.03478,0.0548 -0.01451,0.0204 -0.03011,0.0406 -0.04255,0.0563 -0.0064,0.008 -0.01186,0.0148 -0.01612,0.0199 -0.0025,0.003 -0.0035,0.004 -0.0052,0.006 -6.28e-4,7.5e-4 -0.0012,0.001 -0.0015,0.002 -3.37e-4,4.4e-4 -4.96e-4,7e-4 -2.01e-4,6.2e-4 -0.008,0.006 -0.01314,0.009 -0.01629,0.01 -0.0015,5.8e-4 -0.002,6.8e-4 -0.0019,9.2e-4 1.03e-4,2.4e-4 8.39e-4,7.8e-4 0.0011,0.001 2.77e-4,5.7e-4 4.1e-5,8.5e-4 -3.82e-4,3.1e-4 -4.27e-4,-5.5e-4 -8.83e-4,-0.002 -0.0012,-0.004 -6.15e-4,-0.004 -4.16e-4,-0.009 5.4e-4,-0.0151 0.002,-0.0127 0.0068,-0.0278 0.01189,-0.0407 0.0026,-0.007 0.0053,-0.0127 0.0078,-0.0177 0.0012,-0.003 0.0024,-0.005 0.0035,-0.007 0.0011,-0.002 0.002,-0.003 0.0028,-0.005 0.005,-0.007 0.0089,-0.0139 0.01214,-0.02 0.0037,-0.007 0.0067,-0.0126 0.01036,-0.0181 0.0039,-0.006 0.0083,-0.0106 0.01377,-0.0145 0.0061,-0.004 0.01336,-0.007 0.02208,-0.009 z"
       id="path2044"
       inkscape:connector-curvature="0"
       inkscape:path-effect="#path-effect2046"
       inkscape:original-d="m 57.852799,147.21276 c -0.03685,0.006 -0.04118,0.0336 -0.06201,0.0579 -0.01701,0.0198 -0.0677,0.13884 0.0041,0.091 0.01447,-0.01 0.140991,-0.15895 0.119888,-0.1695 -0.03581,-0.0179 -0.08708,0.11795 -0.115755,0.13229 -0.01045,0.005 0.02233,-0.10154 0.07855,-0.12402 0.0069,-0.003 -0.07855,0.0558 -0.07855,0.0992 0,0.004 0.08968,-0.0409 0.09095,-0.0413 0.0091,-0.003 0.02066,-0.0304 0.02066,-0.0207 0,0.0215 -0.03439,0.0261 -0.04961,0.0413 -0.0011,0.001 -0.0086,0.0241 -0.01241,0.0165 -0.01183,-0.0237 0.04365,-0.10519 0.04134,-0.10749 -0.0016,-0.002 -0.138028,0.10496 -0.165364,0.13229" />
    <path
       style="fill:#000000;fill-rule:nonzero;stroke:none;stroke-width:0.26458332px;stroke-linecap:butt;stroke-linejoin:miter;stroke-opacity:1"
       d="m 62.449934,146.15029 c 1.3e-5,0 2.4e-5,-1e-5 3.2e-5,-1e-5 -1.06e-4,-4e-5 -1.51e-4,-4e-5 -2.06e-4,-4e-5 -2.17e-4,0 -5.9e-4,1e-5 -0.0011,4e-5 -0.001,5e-5 -0.0026,1.5e-4 -0.0048,3e-4 -0.0042,3e-4 -0.0102,7.7e-4 -0.01825,0.001 -0.01436,0.001 -0.03476,0.003 -0.05672,0.005 -0.01947,0.002 -0.04098,0.003 -0.05686,0.004 -0.0076,3.6e-4 -0.01399,5.5e-4 -0.01846,4.6e-4 -0.0022,-4e-5 -0.0039,-1.5e-4 -0.0051,-3.4e-4 -5.94e-4,-9e-5 -0.001,-2e-4 -0.0016,-2.8e-4 -1.3e-4,-2e-5 -3.06e-4,-4e-5 -5.27e-4,-3e-5 -1.13e-4,0 -2.66e-4,1e-5 -4.64e-4,4e-5 -1.72e-4,3e-5 -5.09e-4,9e-5 -9.79e-4,2.3e-4 -2.29e-4,8e-5 -6.29e-4,2.1e-4 -0.0011,4.4e-4 -3.39e-4,1.6e-4 -0.0015,7e-4 -0.0027,0.002 -6.2e-4,5.6e-4 -0.0017,0.002 -0.0025,0.003 -9.25e-4,0.002 -0.0015,0.005 -7.36e-4,0.008 7.32e-4,0.003 0.0024,0.005 0.0035,0.006 0.0011,9.8e-4 0.0022,0.002 0.0028,0.002 0.0012,5.3e-4 0.0022,7.4e-4 0.0026,8.1e-4 4.61e-4,9e-5 8.56e-4,1.4e-4 0.0011,1.7e-4 4.99e-4,6e-5 7.43e-4,8e-5 9.44e-4,1e-4 0.02637,0.003 0.05328,0.004 0.08059,-0.001 0.02575,-0.004 0.05189,-0.0139 0.07966,-0.0312 -9.59e-4,0.002 -1.91e-4,0.002 8.08e-4,0.003 9.98e-4,4.5e-4 0.0024,7.5e-4 0.0039,9.7e-4 0.0027,4e-4 0.0068,6.2e-4 0.01057,4.4e-4 0.0019,-9e-5 0.0043,-3.1e-4 0.0068,-9.1e-4 0.0013,-3.1e-4 0.0028,-7.8e-4 0.0045,-0.002 0.0016,-7.2e-4 0.004,-0.002 0.0066,-0.004 0.0021,-0.002 0.0073,-0.006 0.01126,-0.0146 0.0021,-0.004 0.0045,-0.0112 0.0047,-0.02 1.98e-4,-0.009 -0.0022,-0.0191 -0.0077,-0.028 -0.0052,-0.008 -0.01192,-0.0139 -0.01722,-0.0172 -0.0052,-0.003 -0.01,-0.005 -0.01323,-0.006 -0.006,-0.002 -0.01177,-0.003 -0.0141,-0.003 -0.01302,-3.6e-4 -0.02476,0.004 -0.02566,0.004 -0.0037,0.001 -0.0073,0.003 -0.0096,0.004 -0.0052,0.002 -0.0099,0.004 -0.01477,0.007 -0.0096,0.005 -0.02036,0.0115 -0.03087,0.0189 -0.0096,0.007 -0.02221,0.0163 -0.0319,0.0271 -0.0045,0.005 -0.01232,0.0144 -0.01738,0.0279 -0.0026,0.007 -0.0058,0.0186 -0.0048,0.0333 0.0012,0.016 0.0076,0.0342 0.02194,0.0493 0.02087,0.0224 0.04776,0.0301 0.07023,0.0306 0.0206,4.4e-4 0.03857,-0.005 0.05098,-0.01 0.02527,-0.01 0.04799,-0.0264 0.06484,-0.0424 0.0089,-0.008 0.01794,-0.0184 0.02571,-0.0297 0.0072,-0.0104 0.01677,-0.027 0.02088,-0.0483 0.0022,-0.0112 0.0033,-0.0262 -3.28e-4,-0.0432 -0.0038,-0.0179 -0.01248,-0.036 -0.02707,-0.0514 -0.01432,-0.0151 -0.03088,-0.024 -0.04547,-0.029 -0.0143,-0.005 -0.02775,-0.007 -0.03846,-0.007 -0.0034,-1.8e-4 -0.0074,-3e-4 -0.0088,-3.4e-4 -0.0019,-6e-5 -0.0041,-1.2e-4 -0.0054,-1.6e-4 -0.0032,-9e-5 -0.006,-1.5e-4 -0.0089,-1.5e-4 -0.0058,1e-5 -0.01198,2.5e-4 -0.01881,8.3e-4 -0.01335,0.001 -0.03081,0.004 -0.04844,0.009 -0.0091,0.003 -0.01992,0.006 -0.03107,0.0115 -0.01055,0.005 -0.02661,0.0142 -0.04153,0.0299 -0.0079,0.008 -0.0168,0.02 -0.02372,0.0351 -0.0072,0.0158 -0.01185,0.0346 -0.01148,0.0553 3.69e-4,0.0209 0.0058,0.0396 0.01331,0.0551 0.0074,0.0153 0.01675,0.0272 0.025,0.036 0.01161,0.0121 0.02601,0.0226 0.04299,0.03 0.01717,0.008 0.03436,0.0107 0.05008,0.0113 0.03058,0.001 0.05502,-0.008 0.06869,-0.0145 0.02795,-0.0129 0.0496,-0.0322 0.05978,-0.0416 0.01384,-0.0129 0.02548,-0.0259 0.03285,-0.0344 0.0043,-0.005 0.008,-0.009 0.01057,-0.0127 0.0029,-0.004 0.005,-0.006 0.0048,-0.006 0,0 -0.105733,-0.0795 -0.105733,-0.0795 0,0 -0.105733,-0.0795 -0.105733,-0.0795 -0.0022,0.003 -0.0039,0.006 -0.0057,0.008 -0.0016,0.003 -0.0037,0.006 -0.0057,0.009 -0.0023,0.004 -0.0095,0.0147 -0.0106,0.0167 -0.003,0.005 -0.0019,0.003 0.01218,-0.003 0.0061,-0.003 0.02355,-0.009 0.04724,-0.009 0.01244,4.9e-4 0.02646,0.003 0.04063,0.009 0.01402,0.006 0.02563,0.0148 0.03462,0.0243 0.0048,0.005 0.01154,0.0138 0.01725,0.0257 0.0059,0.0123 0.01038,0.0277 0.01063,0.0454 2.48e-4,0.0175 -0.0038,0.0332 -0.0097,0.046 -0.0057,0.0122 -0.0126,0.0209 -0.01805,0.0265 -0.01036,0.0106 -0.01871,0.0138 -0.02097,0.0144 -0.0032,8.5e-4 -0.0032,-3.2e-4 -0.0022,-0.002 0.0024,-0.003 0.0093,-0.006 0.01497,-0.01 0.0026,-0.001 0.0052,-0.003 0.0061,-0.004 4.62e-4,-5.2e-4 5.85e-4,-0.001 -2.28e-4,-0.001 -4.18e-4,-1.8e-4 -0.0011,-3.4e-4 -0.0023,-4.7e-4 -0.0016,-1.7e-4 -0.0027,-2e-4 -0.0066,-4.4e-4 -0.0036,-4e-4 -0.01146,-0.001 -0.0209,-0.005 -0.0099,-0.004 -0.02273,-0.0103 -0.03431,-0.0226 -0.01187,-0.0127 -0.01879,-0.0275 -0.02167,-0.0415 -0.0027,-0.0132 -0.0015,-0.024 -6.3e-5,-0.0306 0.0029,-0.0132 0.0078,-0.0172 0.0085,-0.0175 0.0016,-7e-4 0.0013,0.002 4.42e-4,0.004 -0.0019,0.005 -0.0067,0.011 -0.0042,0.0114 0.0017,2.8e-4 0.006,-0.001 0.01731,-5.6e-4 0.01216,7.6e-4 0.03005,0.006 0.04382,0.0209 0.01319,0.014 0.01889,0.0305 0.01986,0.0447 8.81e-4,0.0128 -0.002,0.0222 -0.0039,0.0269 -0.004,0.01 -0.0078,0.0113 -0.0083,0.0112 -0.0023,-5e-4 0.0018,-0.008 0.0057,-0.0146 0.0043,-0.007 0.0097,-0.014 0.01298,-0.019 0.0016,-0.002 0.0028,-0.005 0.0021,-0.005 -3.83e-4,-3.6e-4 -0.0012,-3.3e-4 -0.0037,3.2e-4 0.0016,-4.3e-4 -0.01064,0.004 -0.02193,0.003 -0.0011,-2.3e-4 -0.0069,-0.001 -0.01209,-0.003 -0.003,-0.001 -0.0076,-0.003 -0.01263,-0.006 -0.0051,-0.003 -0.0117,-0.009 -0.01686,-0.0169 -0.0054,-0.009 -0.0078,-0.0185 -0.0076,-0.0276 1.86e-4,-0.009 0.0026,-0.0153 0.0046,-0.0195 0.0038,-0.008 0.0087,-0.0121 0.01043,-0.0134 0.0023,-0.002 0.0041,-0.002 0.0051,-0.003 0.0011,-2.8e-4 0.0019,-1.8e-4 0.0023,6e-5 9.71e-4,4.7e-4 0.0011,0.002 9.97e-4,0.003 -2.85e-4,0.002 -0.0019,0.006 -0.0035,0.009 -8.07e-4,0.001 -0.0018,0.003 -0.0027,0.005 -9.23e-4,0.002 -0.0021,0.004 -0.0033,0.006 -0.01813,0.0193 -0.03494,0.0321 -0.05349,0.0412 -0.02029,0.01 -0.04277,0.0155 -0.06831,0.0183 1.75e-4,2e-5 3.97e-4,4e-5 8.79e-4,10e-5 2.02e-4,3e-5 5.92e-4,8e-5 0.001,1.7e-4 3.33e-4,7e-5 0.0014,2.7e-4 0.0025,8.1e-4 6.08e-4,2.7e-4 0.0017,8.1e-4 0.0028,0.002 0.0012,0.001 0.0028,0.003 0.0035,0.006 7.73e-4,0.003 1.88e-4,0.006 -7.35e-4,0.008 -8.36e-4,0.002 -0.0019,0.003 -0.0025,0.003 -0.0012,0.001 -0.0023,0.002 -0.0027,0.002 -4.93e-4,2.3e-4 -8.87e-4,3.7e-4 -0.0011,4.4e-4 -4.59e-4,1.4e-4 -7.71e-4,1.9e-4 -9.21e-4,2.1e-4 -1.75e-4,2e-5 -2.95e-4,3e-5 -3.75e-4,2e-5 -1.61e-4,-1e-5 -2.31e-4,-4e-5 -2.6e-4,-8e-5 -1.18e-4,-1.5e-4 2.47e-4,-4.2e-4 6.53e-4,-6.5e-4 8.91e-4,-5e-4 0.0025,-0.001 0.0045,-0.002 0.0042,-0.001 0.01046,-0.003 0.01782,-0.004 0.01554,-0.003 0.03666,-0.007 0.0559,-0.0108 0.0211,-0.004 0.04258,-0.007 0.05605,-0.01 0.0078,-0.001 0.01407,-0.002 0.01805,-0.003 0.0022,-3.5e-4 0.0038,-6.1e-4 0.0048,-7.6e-4 5.26e-4,-8e-5 8.94e-4,-1.3e-4 0.0011,-1.6e-4 5.4e-5,0 9.9e-5,-1e-5 1.33e-4,-1e-5 z"
       id="path2048"
       inkscape:connector-curvature="0"
       inkscape:path-effect="#path-effect2050"
       inkscape:original-d="m 62.449934,146.15029 c 0.0034,-0.001 -0.164658,0.0207 -0.161232,0.0207 0.05475,0 0.09694,-0.0106 0.14056,-0.0455 0.0054,-0.004 0.02342,-0.0124 0.01654,-0.0124 -0.0067,0 -0.06786,0.052 -0.05788,0.062 0.028,0.028 0.122066,-0.0744 0.06615,-0.0744 -0.0093,0 -0.102415,0.0175 -0.07441,0.0455 0.02061,0.0206 0.069,-0.0493 0.07855,-0.062" />
    <path
       style="fill:#000000;fill-opacity:1;stroke:#000000;stroke-width:0.59763777;stroke-linecap:round;stroke-linejoin:round;stroke-miterlimit:4;stroke-dasharray:none;stroke-opacity:1;paint-order:fill markers stroke"
       d="m 298.19936,518.21475 v -2.75851 h -0.5625 -0.5625 v 1.29748 1.29748 l -0.96875,-0.18044 c -3.28419,-0.61171 -6.40832,-2.27786 -8.85061,-4.72016 -3.41715,-3.41714 -5.13533,-7.8918 -4.95398,-12.90173 l 0.0233,-0.64488 1.30239,-0.0426 c 0.7163,-0.0235 1.32707,-0.0708 1.35725,-0.10513 0.0302,-0.0344 0.0295,-0.26581 -0.002,-0.5143 l -0.0565,-0.45181 -2.08205,-0.0712 c -3.80319,-0.13011 -6.75301,-1.04251 -9.80734,-3.03349 -1.54507,-1.00719 -3.94536,-3.36842 -4.94713,-4.86668 l -0.66863,-1 0.42055,-0.0337 c 0.88005,-0.0706 2.23305,-0.42272 2.23305,-0.58113 0,-0.1465 -0.24911,-0.9496 -0.29348,-0.94614 -0.0105,8.8e-4 -0.32839,0.0845 -0.70652,0.18602 -0.37812,0.10149 -1.03811,0.1852 -1.46664,0.18601 l -0.77915,0.001 -0.32549,-0.64232 c -0.45986,-0.90749 -1.12356,-2.99635 -1.31509,-4.13893 -0.16915,-1.00913 -0.18296,-1.02363 -0.848,-0.89062 -0.29974,0.0599 -0.39063,0.1441 -0.39063,0.36166 0,0.47428 0.69473,3.06062 1.10565,4.1161 0.21271,0.54636 0.36194,1.01819 0.33163,1.0485 -0.10361,0.10361 -1.24886,-0.26149 -2.12478,-0.67738 -2.27849,-1.08184 -4.07115,-3.35698 -4.63224,-5.879 -0.42731,-1.92067 -0.0586,-4.39132 0.8992,-6.02572 l 0.33209,-0.56668 -0.36202,-0.28968 c -0.19912,-0.15933 -0.43073,-0.28997 -0.51471,-0.29031 -0.21104,-8.7e-4 -1.09896,1.88778 -1.34971,2.87089 -0.11348,0.44495 -0.24375,1.13504 -0.28947,1.53353 l -0.0831,0.72454 -0.99262,-0.50816 c -1.79374,-0.91827 -3.7238,-2.59082 -4.80778,-4.16634 -1.28769,-1.87159 -2.2621,-4.84766 -2.2621,-6.90896 v -0.67112 h -0.5625 -0.5625 l 5e-4,0.65625 c 10e-4,1.78159 0.60779,4.10021 1.58514,6.06065 l 0.57551,1.1544 -0.0869,1.1581 c -0.48702,6.49179 -4.66583,12.37326 -10.59929,14.91799 -2.64722,1.13533 -4.61419,1.4919 -7.64799,1.38643 -1.17671,-0.0409 -2.29653,-0.11164 -2.48849,-0.15718 l -0.349,-0.0828 0.45772,-0.45317 c 1.03129,-1.02102 1.55279,-2.32195 1.55279,-3.87356 0,-3.79256 -3.50747,-6.72973 -7.73903,-6.4807 -1.92914,0.11353 -3.45741,0.78503 -4.76687,2.09449 -0.7775,0.7775 -1.65563,2.35053 -1.80469,3.23281 -0.10845,0.64187 -0.2543,0.64962 -1.40372,0.0746 -1.04516,-0.52287 -1.97991,-1.45963 -2.50655,-2.51192 -0.51799,-1.03501 -0.60931,-1.36657 -0.96215,-3.49303 -0.45389,-2.73545 -0.88172,-3.82962 -1.89875,-4.85602 -0.57609,-0.5814 -1.71605,-1.15106 -2.52641,-1.26252 l -0.58868,-0.081 0.15411,-1.02318 c 0.0848,-0.56274 0.15718,-1.76848 0.16093,-2.67942 0.007,-1.79295 0.0354,-1.73072 -0.71167,-1.58131 l -0.37473,0.075 -0.0656,2.0188 c -0.0361,1.11035 -0.13317,2.32818 -0.21578,2.70631 -0.14373,0.65789 -0.1768,0.69936 -0.76774,0.963 l -0.61753,0.27551 0.28617,0.4417 c 0.15739,0.24293 0.35602,0.44239 0.4414,0.44324 0.19134,0.002 -0.002,0.53625 -0.84167,2.32569 -0.83242,1.77405 -1.73171,3.05887 -3.05408,4.36336 -1.87312,1.8478 -3.3549,2.55405 -5.57355,2.65649 -2.10422,0.0972 -3.92521,-0.52431 -5.40085,-1.84318 l -0.71492,-0.63897 -0.37883,0.28009 c -0.20836,0.15404 -0.37884,0.34733 -0.37884,0.42953 0,0.18345 0.74275,0.86454 1.54395,1.41578 2.4572,1.69059 5.82363,1.98384 8.56953,0.74648 0.44054,-0.19851 0.82794,-0.33397 0.86089,-0.30102 0.11366,0.11366 -1.28943,2.2178 -2.25027,3.37462 -4.45584,5.36466 -11.32934,7.75701 -17.1616,5.97317 l -0.75,-0.22939 0.0475,-1.96305 0.0475,-1.96305 h -0.57872 -0.57873 v 1.60416 c 0,0.8823 -0.0376,1.64172 -0.0834,1.68762 -0.0459,0.0459 -0.39746,-0.0933 -0.78125,-0.30937 -1.84356,-1.03779 -3.8223,-2.90481 -5.0557,-4.77027 -0.66191,-1.00111 -1.57961,-2.71411 -1.57961,-2.94854 0,-0.0647 0.45113,-0.21511 1.00251,-0.33425 0.80426,-0.17377 0.99083,-0.25618 0.94344,-0.41673 -0.0325,-0.11007 -0.0971,-0.35947 -0.14366,-0.55423 -0.0681,-0.2852 -0.13617,-0.34028 -0.34969,-0.28306 -0.72662,0.19472 -1.71151,0.348 -1.86289,0.28991 -0.21805,-0.0837 -0.7959,-2.42959 -0.96133,-3.90274 -0.25301,-2.25311 -0.0457,-4.89983 0.54289,-6.93206 l 0.29655,-1.02386 -0.26516,-0.0991 c -0.82119,-0.3069 -0.7917,-0.32012 -1.01753,0.45613 -0.55078,1.89318 -0.72116,3.17853 -0.7256,5.47389 -0.004,2.31982 0.142,3.52397 0.65206,5.36015 l 0.23894,0.86016 -1.51902,-0.0665 c -3.40317,-0.14905 -6.28546,-1.41791 -6.90482,-3.03969 -0.39677,-1.03894 -0.1497,-1.96657 1.12908,-4.23909 0.8509,-1.51214 0.90699,-2.54412 0.18307,-3.36862 -0.44727,-0.50941 -1.17441,-0.7056 -2.06981,-0.55846 -1.12597,0.18504 -2.45961,0.13016 -3.22343,-0.13264 -1.45881,-0.5019 -2.83477,-1.7759 -3.62732,-3.35852 -1.49343,-2.98221 -1.00136,-7.78689 1.2608,-12.3107 3.24392,-6.48707 8.99846,-10.45537 16.06924,-11.08125 0.7778,-0.0688 1.47824,-0.12565 1.55653,-0.12624 0.0783,-6.3e-4 0.38361,0.50659 0.67847,1.12706 0.67058,1.41109 0.74425,1.47717 1.30818,1.17347 0.2393,-0.12887 0.41993,-0.26352 0.4014,-0.29921 -1.17617,-2.26513 -1.75423,-3.79481 -2.17968,-5.76805 -0.35461,-1.64464 -0.321,-5.36972 0.064,-7.08981 0.62472,-2.79131 1.85946,-5.57967 3.49585,-7.89453 1.06903,-1.51227 3.98158,-4.45861 5.52695,-5.59107 6.14968,-4.50655 13.69993,-6.76223 25.625,-7.65564 1.92518,-0.14423 16.11109,-1.00329 16.56766,-1.00329 h 0.26983 l -0.30025,1.03125 c -0.27972,0.96076 -0.72338,3.44928 -0.63135,3.5413 0.0225,0.0225 0.2731,0.0781 0.55678,0.12348 l 0.51578,0.0825 0.0816,-0.733 c 0.12121,-1.08908 0.60904,-2.98921 1.05048,-4.09166 1.66687,-4.1628 5.45993,-7.51177 10.2645,-9.06273 2.51271,-0.81112 3.49225,-0.94452 6.9375,-0.94478 2.67435,-2.1e-4 3.35934,0.0402 4.75,0.28054 7.32227,1.26524 14.97983,4.46168 20.53928,8.57356 2.72668,2.01671 5.77197,4.93499 7.83588,7.50906 2.36814,2.95351 4.88225,7.27408 6.23642,10.71746 0.31676,0.80544 0.57592,1.51355 0.57592,1.57358 0,0.06 -0.46577,0.008 -1.03506,-0.11532 -1.29359,-0.28052 -3.77695,-0.61021 -4.59634,-0.61021 h -0.6186 v 0.5625 0.5625 l 0.71875,6.2e-4 c 1.05391,8.8e-4 3.8056,0.43166 5.4954,0.86038 4.36628,1.10777 8.45349,3.15524 12.16085,6.09193 1.47548,1.16876 4.75929,4.4754 5.98779,6.02942 4.90927,6.21012 7.39866,12.82075 7.38331,19.60652 -0.006,2.61586 -0.56539,6.66375 -0.92044,6.65953 -0.076,-8.7e-4 -0.67254,-0.11711 -1.32566,-0.25825 -1.26681,-0.27375 -5.53021,-0.48106 -6.42831,-0.31257 -0.44705,0.0839 -0.45928,0.10066 -0.42229,0.57993 l 0.0381,0.49356 2.8125,0.049 c 3.08124,0.0537 4.06999,0.20284 6.32375,0.95369 4.683,1.56014 8.75957,5.28967 10.99475,10.05875 3.29839,7.03759 2.56045,15.69815 -1.97041,23.125 -2.01314,3.29987 -5.28478,6.89023 -8.31494,9.125 -2.15985,1.5929 -4.6984,3.0625 -5.29011,3.0625 -1.1047,0 -3.89463,0.93187 -4.87064,1.62685 l -0.3724,0.26517 v -2.75851 z"
       id="path2054"
       inkscape:connector-curvature="0"
       transform="scale(0.26458333)" />
    <path
       style="fill:none;stroke:#000000;stroke-width:0.26458332px;stroke-linecap:butt;stroke-linejoin:miter;stroke-opacity:1"
       d="m 52.92907,128.43354 -0.01344,0.0806"
       id="path2064"
       inkscape:connector-curvature="0"
       inkscape:path-effect="#path-effect2066"
       inkscape:original-d="m 52.92907,128.43354 c -0.0042,0.0266 -0.0087,0.0535 -0.01344,0.0806" />
  </g>
</svg>
