<svg xmlns="http://www.w3.org/2000/svg" width="396.85" height="559.37" viewBox="0 0 105 148" xmlns:v="https://vecta.io/nano"><style><![CDATA[.B{stroke:#000}.C{stroke-width:.45}.D{stroke-linejoin:round}]]></style><g fill="none" class="B C"><path d="M99.008 115.833c-9.554-4.317-17.275-12.537-20.985-22.342-2.511-6.636-3.215-13.804-3.633-20.887-.338-5.735-.502-11.479-.492-17.224M6.053 125.048c4.934-4.543 10.008-8.935 15.211-13.168 1.534-1.248 3.083-2.486 4.466-3.899s2.602-3.018 3.367-4.841c.964-2.299 1.163-4.911.56-7.329"/><path d="M17.404 114.945a33.86 33.86 0 0 0 8.854 14.076c5.2 4.942 12.044 8.162 19.184 8.854 8.322.807 16.675-1.766 24.066-5.676 7.088-3.75 13.552-8.79 18.503-15.098 1.422-1.811 2.717-3.722 3.872-5.714m2.318 1.646a55.88 55.88 0 0 1-9.257 13.937c-5.361 5.907-12.047 10.665-19.529 13.431s-15.762 3.494-23.535 1.699c-4.203-.97-8.238-2.665-11.88-4.977-5.962-3.784-10.871-9.274-13.726-15.733a33.72 33.72 0 0 1-1.525-4.174m24.678-67.43c.796.865 1.335 1.963 1.532 3.122.181 1.067.077 2.161-.057 3.235-.454 3.637-1.253 7.257-2.724 10.614-.207.471-.427.938-.579 1.43s-.235 1.013-.159 1.522c.054.363.191.716.405 1.014s.507.542.844.688c.348.151.736.195 1.114.164s.747-.137 1.099-.277c.954-.378 1.805-1.011 2.441-1.816m1.958 5.448a2.9 2.9 0 0 1-.624 1.646 2.93 2.93 0 0 1-2.412 1.078M74.088 67.13a9.41 9.41 0 0 0 4.716-1.124c.604-.327 1.175-.724 1.659-1.212s.88-1.071 1.11-1.718c.394-1.108.273-2.378-.284-3.413s-1.532-1.828-2.646-2.205a5.07 5.07 0 0 0-4.696.823"/><path d="M16.595 122.114l3.01-2.248m-.441 6.743l2.689-2.729m1.846 8.348l2.569-3.492m6.461 9.873l1.605-3.853m7.105 7.224l.722-4.696m9.993.562l-.441 5.338m11.438-7.866l2.91 4.916m7.425-3.712l-3.391-4.656m11.297-1.324l-3.913-3.251m9.673-3.171l-2.97-2.408M50.268 49.957a9.15 9.15 0 0 1 7.126-1.076 9.15 9.15 0 0 1 5.644 4.482 9.19 9.19 0 0 1 1.037 5.012 9.4 9.4 0 0 1-1.793 4.797 9.62 9.62 0 0 1-4.035 3.159c-1.597.664-3.372.888-5.085.654a10.08 10.08 0 0 1-7.464-5.276 10.09 10.09 0 0 1 .029-9.141"/><path d="M44.719 56.285a5.34 5.34 0 0 0-4.441-1.618c-1.227.145-2.396.74-3.235 1.646"/></g><use href="#B" class="B C"/><use href="#B" x="-25.285" y="0.48" class="B C"/><path d="M37.043 56.313c-.481-1.65-1.51-3.116-2.818-4.232s-2.884-1.892-4.532-2.38c-1.368-.405-2.802-.617-4.225-.52s-2.836.511-4.034 1.286c-1.271.823-2.273 2.042-2.89 3.425s-.854 2.926-.743 4.436a10.15 10.15 0 0 0 2.707 6.151 10.15 10.15 0 0 0 5.977 3.072c1.844.249 3.758-.029 5.447-.808a9.54 9.54 0 0 0 4.117-3.648c1.228-2.006 1.651-4.524.993-6.783z" fill="none" class="B C"/><path d="M76.907 61.581a.47.47 0 0 0-.372.121.43.43 0 0 0-.11.167.41.41 0 0 0-.02.199c.019.126.101.239.213.301s.249.071.369.03a.46.46 0 0 0 .263-.224.41.41 0 0 0 .013-.343.41.41 0 0 0-.144-.173c-.063-.043-.137-.069-.212-.077z" class="B C"/><g fill="none" class="B C"><path d="M73.947 56.815c-2.004-.17-3.929-1.139-5.258-2.649-1.432-1.627-2.148-3.864-1.926-6.02m1.415-.201a8.59 8.59 0 0 1-6.271-1.967 8.57 8.57 0 0 1-2.93-5.338"/><path d="M61.425 43.25a4.19 4.19 0 0 1-3.671-.54 4.19 4.19 0 0 1-1.747-3.273 4.15 4.15 0 0 1 .682-2.368m-3.867.06a8.33 8.33 0 0 1-2.724 6.187 8.24 8.24 0 0 1-3.704 1.905 8.26 8.26 0 0 1-4.162-.157m-10.07-7.424a1.76 1.76 0 0 1 2.157.227c.41.403.595.98.698 1.545s.141 1.145.323 1.69c.152.457.406.881.748 1.22a2.72 2.72 0 0 0 1.239.709 2.54 2.54 0 0 0 .609.077m-19.964-18.75a9 9 0 0 0-5.733 1.703c-1.763 1.287-3.018 3.225-3.576 5.335-.328 1.24-.414 2.603.116 3.771.265.584.683 1.105 1.224 1.45s1.206.505 1.839.398l.458-.081c.154-.014.317.001.45.081.118.07.206.188.251.318a.84.84 0 0 1 .029.408c-.044.272-.193.514-.336.749-.173.285-.345.574-.452.89s-.149.662-.058.983c.089.315.3.585.557.789s.556.344.862.46a6.68 6.68 0 0 0 4.2.17m58.958 15.45a15.25 15.25 0 0 0 4.668-3.643c1.845-2.137 3.087-4.843 3.235-7.662.094-1.795-.259-3.621-1.078-5.222-.895-1.747-2.357-3.215-4.143-4.03-1.101-.503-2.309-.756-3.519-.795a10.55 10.55 0 0 0-1.476.057"/><path d="M51.857 33.78c-.014 1.178.326 2.359.965 3.349a6.1 6.1 0 0 0 3.122 2.441m-13.493 5.528a2.25 2.25 0 0 0 1.289-1.896c.034-.572-.159-1.149-.504-1.608s-.833-.801-1.37-1.003a3.3 3.3 0 0 0-1.738-.163c-.58.105-1.129.379-1.554.787a2.93 2.93 0 0 0-.873 1.782m-19.3-17.406a8.3 8.3 0 0 1-1.164-4.214c-.002-1.555.442-3.099 1.204-4.455.781-1.39 1.888-2.585 3.171-3.532 1.99-1.469 4.373-2.333 6.796-2.829s4.903-.638 7.372-.783l5.378-.321"/><path d="M40.636 11.824c.076-1.293.527-2.562 1.284-3.612.702-.974 1.659-1.754 2.73-2.296s2.254-.85 3.45-.954c1.822-.159 3.658.148 5.418.642 2.766.777 5.413 2.031 7.666 3.813a19.06 19.06 0 0 1 6.295 9.11"/><path d="M78.282 36.467a12.9 12.9 0 0 0 .04-6.983c-.52-1.88-1.468-3.625-2.649-5.177-1.628-2.141-3.731-3.947-6.181-5.057-1.639-.742-3.42-1.167-5.217-1.244m-47.76 18.3a8.66 8.66 0 0 0 .321 6.261c.418.92 1.002 1.768 1.739 2.46a6.56 6.56 0 0 0 2.595 1.514c1.001.298 2.074.332 3.1.139s2.006-.611 2.88-1.182a8.99 8.99 0 0 0 3.472-4.335"/><path d="M32.97 34.741c.162 1.87-.343 3.79-1.405 5.338-.618.901-1.453 1.698-2.488 2.047a3.72 3.72 0 0 1-2.124.07c-.695-.184-1.332-.577-1.81-1.113m-3.631 25.19a15.08 15.08 0 0 0-1.042 7.125 15.04 15.04 0 0 0 .738 3.406m.794-1.079a6.81 6.81 0 0 0-.795 1.078c-.507.855-.824 1.841-.783 2.834s.466 1.988 1.237 2.615a3.06 3.06 0 0 0 1.816.681"/><path d="M22.229 80.89a4.54 4.54 0 0 0 .341 4.37c.315.475.731.898 1.249 1.135.487.223 1.052.272 1.569.135m-.775.149a9.47 9.47 0 0 0 2.1 5.676c.743.914 1.661 1.687 2.688 2.264m.207-1.696a4.38 4.38 0 0 0 .341 3.519c.604 1.06 1.645 1.825 2.781 2.27a7.26 7.26 0 0 0 5.506-.113"/><path d="M37.213 97.35a4.75 4.75 0 0 0 1.987 2.951c.585.391 1.261.649 1.96.732s1.42-.008 2.07-.278c1.218-.505 2.147-1.654 2.384-2.951"/><path d="M44.308 97.35a3.36 3.36 0 0 0 2.951 2.951c.904.098 1.825-.185 2.584-.685s1.365-1.209 1.843-1.982a8.94 8.94 0 0 0 1.192-3.122"/><path d="M50.041 93.32a3.84 3.84 0 0 0 3.916 3.406c.77-.028 1.523-.293 2.171-.711s1.193-.983 1.632-1.617a7.23 7.23 0 0 0 .851-1.646"/><path d="M55.773 90.142a3.5 3.5 0 0 0 3.519 3.633 3.49 3.49 0 0 0 3.349-2.951m-2.781-2.442c.083.669.42 1.304.927 1.749a2.81 2.81 0 0 0 1.855.691c.748-.005 1.482-.322 2.027-.834s.902-1.212 1.038-1.947a3.91 3.91 0 0 0 0-1.419"/><path d="M63.549 84.75c.167.708.627 1.342 1.248 1.72s1.395.498 2.101.323c.806-.2 1.507-.783 1.85-1.539s.319-1.668-.062-2.405"/><path d="M66.444 81.401a3.1 3.1 0 0 0 1.236 1.152 3.08 3.08 0 0 0 1.658.324 3.46 3.46 0 0 0 1.47-.49 4.52 4.52 0 0 0 1.167-1.029c.659-.808 1.066-1.79 1.388-2.781.849-2.613 1.158-5.4.904-8.136M72.39 56.404c-.805 1.24-1.346 2.65-1.576 4.11a10.6 10.6 0 0 0 .17 4.139"/><path d="M71.804 64.047a3.46 3.46 0 0 0-1.941 4.123"/><path d="M69.793 67.495a5.31 5.31 0 0 0-1.73 1.65c-.748 1.139-1.029 2.575-.768 3.912m-.407-.477a2.42 2.42 0 0 1 .748 2.294c-.111.523-.398 1.001-.774 1.382a4.33 4.33 0 0 1-1.326.888l-1.115.456c-.366.166-.72.377-.985.679a1.92 1.92 0 0 0-.465 1.369 1.92 1.92 0 0 0 .636 1.299m-32.439 3.065c.61 1.049 1.755 1.768 2.966 1.861.535.041 1.081-.032 1.605.08.487.104.926.361 1.335.645l1.233.84c.896.496 1.989.654 2.97.361.689-.206 1.295-.616 1.901-1.003s1.243-.762 1.951-.884c.661-.114 1.34.002 1.988.172l1.945.51c.928.16 1.883.092 2.809-.08a12.66 12.66 0 0 0 5.886-2.815m-28.632-1.191a3.47 3.47 0 0 1-2.215-2.896c-.042-.435-.001-.874.015-1.311s.005-.884-.136-1.298c-.129-.379-.361-.714-.617-1.021l-.787-.905c-.748-.938-1.171-2.093-1.485-3.251l-.963-3.492c-.358-.941-.861-1.826-1.485-2.615"/><path d="M20.64 44.451a135.08 135.08 0 0 0 .13 13.448 135.06 135.06 0 0 0 .771 8.455m39.695 16.789a2.29 2.29 0 0 1 .595-2.436c.349-.323.801-.533 1.273-.59m-24.057-6.686a14.36 14.36 0 0 0-3.09 1.18 14.54 14.54 0 0 0-7.108 8.569"/><path d="M39.658 73.255c-1.287.282-2.536.739-3.701 1.356a14.76 14.76 0 0 0-7.108 8.569"/><path d="M39.657 73.255a21.38 21.38 0 0 0-7.508 8.393 21.28 21.28 0 0 0-1.587 4.298M44.705 71.43a25.32 25.32 0 0 1 8.986 3.541 25.33 25.33 0 0 1 7.465 7.337"/><path d="M44.705 71.43c3.015 1.663 5.801 3.742 8.253 6.158 2.246 2.213 4.212 4.709 5.838 7.41"/></g><path d="M41.238 100.807a4.29 4.29 0 0 1-2.098-.84c-.324-.243-.747-.675-.953-.974l-.063-.092.102-.042c.088-.036.1-.049.091-.086a2.9 2.9 0 0 0-.177-.387c-.005 0-.06.023-.123.051s-.125.047-.138.042c-.061-.023-.35-.772-.41-1.061-.014-.068-.031-.124-.037-.123a9.04 9.04 0 0 0-.22.046c-.154.033-.21.054-.215.078-.018.092.202.757.358 1.084l.07.146-.052.02a8.16 8.16 0 0 1-.896.204c-.81.133-1.698.118-2.503-.04-.911-.18-1.792-.555-2.497-1.064-1.25-.903-1.894-2.163-1.848-3.612.013-.415.052-.649.185-1.125.011-.039-.006-.048-.184-.107l-.219-.073c-.053-.019-.192.557-.226.938l-.035.323-.013.084-.228-.154c-.543-.367-.887-.651-1.372-1.136s-.793-.856-1.147-1.386c-.877-1.312-1.417-2.896-1.525-4.478l-.013-.191.127-.014c.178-.019.475-.073.475-.086a4.45 4.45 0 0 0-.118-.426c-.007-.008-.088 0-.181.017a2.42 2.42 0 0 1-.909-.041c-.707-.196-1.318-.771-1.753-1.651-.251-.509-.436-1.245-.436-1.743v-.115l.094.048c.141.071.45.183.64.231a4.32 4.32 0 0 0 .641.099h.055v-.236-.236l-.154-.012a2.77 2.77 0 0 1-1.04-.306l-.21-.109.029-.182c.043-.271.132-.601.236-.869l.085-.246c-.004-.005-.097-.049-.207-.098l-.199-.09-.044.087c-.068.134-.214.575-.263.795-.058.261-.055.253-.089.234-.052-.029-.269-.291-.391-.472-.599-.887-.738-2.037-.392-3.228.207-.713.609-1.45 1.145-2.102.181-.22.186-.23.151-.263l-.171-.157-.134-.123-.11.125-.271.339-.174.214c-.026 0-.24-.81-.335-1.271-.516-2.496-.388-5.027.379-7.479l.372-1.023a2.38 2.38 0 0 1 .162.243c.541.87.887 1.664 1.192 2.736l.337 1.311.766 2.602c.343.867.753 1.547 1.318 2.185.663.749.814.945.972 1.261.236.471.267.748.232 2.026-.019.679-.008.874.07 1.239a3.87 3.87 0 0 0 .65 1.423c.322.428.781.817 1.24 1.054l.147.076-.081.244c-.044.134-.076.249-.07.255.025.025.421.132.434.117a4.24 4.24 0 0 0 .125-.344c.847-2.524 2.51-4.886 4.653-6.608 1.248-1.003 2.633-1.769 4.119-2.28l.345-.111c.011 0-.063.064-.166.142-1.184.903-2.375 2.037-3.361 3.201a21.47 21.47 0 0 0-4.105 7.444l-.338 1.202c0 .019.435.14.447.125.002-.003.033-.117.069-.254l.324-1.1.047-.136.083.108a5.63 5.63 0 0 0 .704.677c.438.327.912.555 1.435.69.372.096.6.119 1.372.138l.884.057c.453.105.799.292 1.594.861.565.404.754.525 1.06.678a4.06 4.06 0 0 0 1.776.445c.576.017 1.042-.063 1.544-.263.406-.162.704-.325 1.4-.766 1.003-.635 1.418-.842 1.944-.965.166-.039.282-.051.566-.06.591-.017.963.049 2.066.365.925.265 1.217.332 1.708.392 1.668.204 3.993-.291 5.934-1.261.818-.409 1.711-.983 2.36-1.517l.174-.137c.027-.015.197.236.56.827l.221.333c.009 0 .101-.051.205-.113l.189-.113-.042-.07a39.39 39.39 0 0 0-2.153-3.182c-2.784-3.706-6.273-6.906-10.213-9.364l-.436-.281a2.85 2.85 0 0 1 .272.065c5.771 1.519 10.759 4.992 14.177 9.87l.264.376v.14c0 .204.086.68.137.763.012.019.065.007.222-.049l.214-.079c.004-.003-.011-.075-.034-.161a2.04 2.04 0 0 1 1.278-2.459c.216-.08.224-.08.258 0 .078.186.458.678.51.66a3.15 3.15 0 0 0 .295-.334c0-.007-.048-.063-.107-.126-.32-.347-.489-.856-.434-1.307.064-.524.34-.955.812-1.267.224-.148.523-.289 1.099-.518.929-.369 1.432-.673 1.907-1.153.637-.643.959-1.481.877-2.282-.039-.375-.154-.75-.319-1.038-.067-.116-.081-.165-.112-.377a6.08 6.08 0 0 1-.001-1.305c.167-1.221.714-2.276 1.6-3.089.169-.155.477-.4.486-.386.003.003.021.076.04.159l.035.153.103-.031.222-.065c.076-.022.118-.044.116-.062s-.021-.108-.044-.206a3.18 3.18 0 0 1 .031-1.49c.226-.88.84-1.637 1.661-2.049.105-.053.173-.098.167-.112-.083-.214-.168-.391-.188-.391-.032 0-.41.195-.513.265l-.078.053-.014-.075c-.034-.185-.115-.753-.139-.979a15.29 15.29 0 0 1 .01-1.987c.135-1.231.474-2.417.997-3.486a11.21 11.21 0 0 1 .459-.843c.005-.005.144.024.311.064a8.72 8.72 0 0 0 .571.115l.31.05c.042.008.042.008.055 1.334.046 4.481.192 9.152.395 12.61.131 2.233-.037 4.15-.542 6.187-.457 1.844-1.028 3.184-1.722 4.044-.177.22-.546.587-.731.728-.338.258-.746.476-1.103.589-.911.29-1.879.125-2.627-.446a3.31 3.31 0 0 1-.683-.754c-.02-.034-.036-.028-.224.083l-.202.12.076.118c.35.539.929 1.013 1.523 1.247a3.56 3.56 0 0 0 .611.182l.092.014.06.167c.105.291.147.536.147.872a2.27 2.27 0 0 1-.271 1.151c-.128.251-.28.453-.503.667a2.45 2.45 0 0 1-1.497.694c-.238.024-.536.008-.536-.029 0-.017-.022-.02-.074-.01-.137.024-.477-.076-.78-.228-.584-.294-1.049-.844-1.253-1.478-.03-.093-.063-.172-.074-.175-.018-.007-.199.031-.365.076l-.073.02.04.144c.131.475.434.972.816 1.337a3.01 3.01 0 0 0 1.32.735c.068.019.047.658-.034 1.052-.266 1.291-1.213 2.269-2.405 2.484a2.9 2.9 0 0 1-.906-.01c-.522-.106-.946-.328-1.307-.685-.369-.365-.628-.84-.719-1.322l-.034-.18-.06.001c-.033.001-.136.012-.229.025l-.169.023.006.069c.022.244.145.623.308.942a3.01 3.01 0 0 0 1.722 1.482c.191.064.533.138.637.138.055 0 .058.005.046.055a3.6 3.6 0 0 1-.462 1.028 3.21 3.21 0 0 1-2.777 1.415c-.3-.012-.549-.051-.535-.083.086-.19.231-.552.235-.587.005-.041-.015-.054-.201-.123-.114-.042-.209-.075-.211-.072a7.09 7.09 0 0 0-.094.224c-.157.382-.191.446-.228.433-.105-.036-.492-.235-.62-.319-.484-.317-.884-.778-1.131-1.302-.198-.419-.295-.815-.313-1.279l-.011-.28-.219-.014c-.251-.015-.252-.015-.252.138a4.04 4.04 0 0 0 .385 1.666c.374.77 1.037 1.415 1.785 1.736.095.041.174.083.174.094 0 .031-.242.41-.405.633-1.148 1.574-2.798 2.341-4.346 2.02-.194-.04-.454-.115-.477-.137-.008-.007.031-.143.086-.301a13.29 13.29 0 0 0 .167-.518c.066-.228.209-.839.209-.895 0-.021-.058-.038-.221-.066-.235-.039-.255-.035-.256.055-.001.139-.248 1.04-.377 1.377l-.062.162-.153-.086c-.853-.48-1.511-1.397-1.711-2.387-.022-.111-.041-.228-.041-.26s-.004-.062-.009-.067c-.011-.012-.446.034-.46.047s.05.392.112.626c.28 1.054 1.015 1.991 1.95 2.488l.133.071-.116.238a8.71 8.71 0 0 1-.951 1.511c-.205.257-.624.681-.86.87-1.074.859-2.353 1.147-3.449.777a3.41 3.41 0 0 1-1.126-.669l-.135-.125.078-.149c.115-.22.253-.577.32-.836.087-.329.096-.306-.134-.346l-.225-.042c-.025-.007-.039.025-.066.153-.04.184-.147.502-.234.693l-.059.129-.05-.08a3.55 3.55 0 0 1-.437-1.132l-.036-.202c-.002-.005-.325.03-.401.043l-.062.01.028.173c.082.514.303 1.064.592 1.477l.106.152-.11.147c-.726.967-1.848 1.519-3.059 1.505-.129-.001-.305-.01-.391-.019z" paint-order="fill markers stroke" stroke-width=".095" class="B D"/><path d="M38.386 73.768c-.015.002-.027.007-.038.014s-.018.014-.027.023-.014.018-.022.028l-.025.029-.015.02-.017.03a.41.41 0 0 0-.029.072c-.003.012-.006.023-.006.034.003.022.006.029.011.034a.04.04 0 0 0 .018.01c.007.002.014.001.021 0 .013-.002.028-.008.045-.019l.023-.017.033-.032.082-.092.073-.095.013-.021a.2.2 0 0 0 .01-.021c.003-.007.005-.017.004-.028a.05.05 0 0 0-.007-.021c-.005-.008-.012-.014-.02-.019s-.021-.008-.032-.008-.021.002-.03.005c-.017.007-.031.017-.043.028-.023.021-.045.051-.065.079l-.055.079-.021.024c.024-.01.033-.01.042-.008s.019.007.026.012.012.012.015.017c.006.01.008.018.009.022.011-.003.018-.019.03-.04a.28.28 0 0 1 .04-.053c.015-.015.027-.021.033-.021-.013.004-.019.005-.028.007-.027-.002-.039-.004-.051-.013s-.026-.02-.034-.037-.01-.031-.01-.042.003-.02.004-.026c.009-.02.012-.024.013-.025-.018.004-.039.019-.061.037a.45.45 0 0 0-.067.068c-.011.014-.021.03-.03.049s-.016.042-.017.07a.11.11 0 0 0 .009.045c.007.015.017.029.028.039.021.019.044.025.055.028.021.003.038.002.041.001l.024-.005c.01-.002.018-.005.027-.007.018-.005.038-.014.059-.021l.057-.021.019-.007c.017-.003.035-.015.045-.022l.025-.021.025-.024c-.008.017-.02.031-.04.042-.011.007-.029.014-.054.017a.17.17 0 0 1-.09-.015c-.032-.015-.049-.038-.061-.055s-.016-.033-.019-.042a.17.17 0 0 1-.006-.038c-.002-.039.014-.071.029-.09s.02-.02.015-.02a.17.17 0 0 0-.03.008c-.014.007-.042.019-.068.043-.012.01-.023.027-.025.03l-.016.025c-.003-.013.005-.029.023-.046.01-.008.026-.023.051-.034s.064-.021.107-.014.079.028.103.049.035.041.042.054c.021.041.021.078.02.087.026-.024.034-.036.044-.051l.015-.024a.21.21 0 0 0 .013-.026c.002-.005.008-.021.012-.043.002-.01.005-.032.002-.06-.002-.015-.005-.034-.014-.056s-.024-.049-.048-.073l.016.018c-.025-.031-.055-.051-.083-.063a.23.23 0 0 0-.068-.017c-.032-.003-.058.002-.068.005-.022.005-.039.014-.044.015-.012.005-.022.012-.024.014l-.019.012-.034.023-.091.068-.099.078-.042.035a.54.54 0 0 0-.037.033l.159.159.159.159.047-.043.089-.074.08-.066.021-.017c-.004.001-.013.006-.023.011-.004.002-.02.01-.042.015-.01.002-.035.008-.068.005-.017-.001-.041-.005-.068-.017s-.058-.032-.083-.063l.016.018c-.024-.024-.039-.05-.048-.073a.22.22 0 0 1-.014-.056.2.2 0 0 1 .002-.059c.004-.021.01-.036.011-.04-.002.008-.013.031-.025.057a.61.61 0 0 0-.035.093c-.005.017-.011.042-.012.071s-.001.074.025.126a.21.21 0 0 0 .044.058c.023.021.06.044.106.051s.083-.002.11-.015.044-.026.054-.036c.02-.019.031-.038.036-.046s.009-.019.011-.025c.004-.012.006-.022.006-.027-.009.008-.012.014-.016.02s-.013.019-.031.036c.023-.024.05-.042.073-.069s.05-.077.048-.135c0-.007-.001-.023-.007-.042a.16.16 0 0 0-.019-.043c-.012-.018-.031-.04-.061-.056a.15.15 0 0 0-.091-.015c-.027.004-.044.012-.055.018-.021.012-.034.025-.038.03-.01.012-.015.022-.017.025-.006.017-.006.02-.002.019.018-.012.033-.022.054-.029l-.023.012-.017.012-.049.03-.046.028c.008.005.025.001.045.006.011.002.033.008.054.027.011.01.021.023.028.039s.009.031.009.044c.004-.01.015-.026.029-.042l.037-.04.016-.017c.014-.017.017-.022.02-.029a.11.11 0 0 0 .01-.039.09.09 0 0 0-.01-.043c-.008-.017-.021-.029-.034-.037a.12.12 0 0 0-.032-.012c-.028 0-.035.001-.038.002-.052.023-.083.055-.105.084a.43.43 0 0 0-.051.092.4.4 0 0 0-.024.08l-.003.037c.003.02.006.031.012.041a.08.08 0 0 0 .016.018c.008.005.017.01.027.012s.019.002.027 0a.19.19 0 0 0 .043-.025l.015-.018a.4.4 0 0 0 .025-.039l.047-.087a.49.49 0 0 1 .042-.067l-.02-.028c-.01-.082.001.04-.003-.02-.004.014-.006.019-.01.024a.9.9 0 0 1-.059.093l-.072.096-.027.034c-.025.025-.034.03-.039.032-.005-.01-.005-.018-.003-.029a.35.35 0 0 1 .02-.069c.004-.012.009-.022.013-.03l.011-.02.021-.034.018-.031a.11.11 0 0 1 .023-.025c.009-.007.023-.012.038-.015zm7.81-1.805l-.041.002-.096.008-.097.007-.031.001c-.017 0-.019.001-.021.003-.004.024-.001.027 0 .029.057.01.103.012.15.004s.088-.024.135-.053c.013.007.02.008.026.007.022-.006.026-.008.03-.012s.012-.01.019-.025a.08.08 0 0 0 .008-.034c0-.015-.004-.032-.013-.048s-.02-.024-.029-.029-.017-.008-.022-.01-.02-.005-.024-.005c-.022-.001-.042.007-.044.007l-.041.019a.47.47 0 0 0-.052.032.35.35 0 0 0-.054.046.14.14 0 0 0-.038.104c.002.025.013.058.037.084.035.038.081.051.119.052a.2.2 0 0 0 .087-.017.35.35 0 0 0 .11-.072.29.29 0 0 0 .044-.05c.012-.018.028-.046.035-.082.004-.019.006-.045-.001-.073s-.021-.061-.046-.087-.052-.041-.077-.049a.22.22 0 0 0-.065-.012l-.024-.001-.047.001c-.023.002-.052.007-.082.015-.015.005-.034.01-.053.02a.24.24 0 0 0-.071.051c-.013.014-.029.034-.04.06s-.02.059-.02.094.01.067.023.094a.24.24 0 0 0 .042.061c.02.021.044.038.073.051s.058.018.085.019c.052.002.093-.014.117-.025.047-.022.084-.055.102-.071a.77.77 0 0 0 .056-.058l.018-.022c.008-.01-.171-.145-.171-.145l-.18-.135-.019.029-.018.028c-.005.008-.003.005.021-.005.01-.005.04-.015.08-.015.021.001.045.005.069.015s.044.025.059.041c.008.008.02.023.029.044s.018.047.018.077-.006.056-.016.078-.021.036-.031.045c-.018.018-.032.023-.036.024 0-.008.012-.014.022-.02-.011-.011-.025-.012-.041-.019s-.039-.017-.058-.038-.032-.047-.037-.071a.11.11 0 0 1 0-.052c.005-.022.013-.029.014-.03-.002.015-.011.025-.006.026s.01-.002.029-.001.051.01.074.036.032.052.034.076-.003.038-.007.046c-.007.017-.013.019-.014.019s.003-.014.01-.025l.022-.032c0-.009-.021-.001-.04-.003-.002 0-.012-.002-.021-.005s-.013-.005-.021-.01-.02-.015-.029-.029-.013-.031-.013-.047.004-.026.008-.033c.006-.014.015-.021.018-.023.007.017.005.02.004.024a.29.29 0 0 1-.096.08c-.034.017-.073.026-.116.031.014.007.017.01.018.015l-.01.022c.011-.005.022-.009.035-.01l.095-.018.095-.017.031-.005z"/><g class="B"><path d="M74.141 56.606v-1.24h-.253-.253v.583.583l-.435-.081c-1.476-.275-2.881-1.024-3.978-2.122-1.536-1.536-2.308-3.547-2.227-5.799l.011-.29.585-.019.61-.047c.014-.015.013-.119-.001-.231l-.025-.203-.936-.032c-1.71-.058-3.036-.469-4.408-1.364-.695-.453-1.773-1.514-2.224-2.188l-.301-.45.189-.015c.396-.032 1.004-.19 1.004-.261 0-.066-.112-.427-.132-.425-.005 0-.148.038-.318.084s-.467.083-.659.084h-.35l-.146-.289a8.67 8.67 0 0 1-.591-1.86c-.076-.454-.082-.46-.381-.4-.135.027-.176.065-.176.163 0 .213.312 1.376.497 1.85.096.246.163.458.149.471-.047.047-.561-.118-.955-.304-1.024-.486-1.83-1.509-2.082-2.643-.192-.863-.026-1.974.404-2.709l.149-.255-.163-.13c-.089-.072-.194-.13-.231-.13-.095 0-.494.849-.607 1.29-.051.2-.11.51-.13.689l-.037.326-.446-.228a6.39 6.39 0 0 1-2.161-1.873c-.579-.841-1.017-2.179-1.017-3.106v-.302h-.253-.253v.295c0 .801.273 1.843.713 2.724l.259.519-.039.521c-.219 2.918-2.097 5.562-4.764 6.706-1.19.51-2.074.671-3.438.623l-1.119-.071-.157-.037.206-.204c.464-.459.698-1.044.698-1.741 0-1.705-1.577-3.025-3.479-2.913-.867.051-1.554.353-2.143.941-.349.349-.744 1.057-.811 1.453-.049.289-.114.292-.631.033a2.61 2.61 0 0 1-1.127-1.129c-.233-.465-.274-.614-.432-1.57-.204-1.23-.396-1.721-.853-2.183-.259-.261-.771-.517-1.136-.568l-.265-.036.069-.46c.038-.253.071-.795.072-1.204.003-.806.016-.778-.32-.711l-.168.034-.029.907-.097 1.216c-.065.296-.079.314-.345.433l-.278.124.129.199c.071.109.16.199.198.199.086.001-.001.241-.378 1.045a6.39 6.39 0 0 1-1.373 1.961c-.842.831-1.508 1.148-2.505 1.194-.946.044-1.764-.236-2.428-.829l-.321-.287-.17.126c-.094.069-.17.156-.17.193 0 .082.334.389.694.636a4.02 4.02 0 0 0 3.852.336c.198-.089.372-.15.387-.135.051.051-.58.997-1.012 1.517-2.003 2.411-5.093 3.487-7.714 2.685l-.337-.103.021-.882.021-.882h-.26-.26v.721l-.037.759c-.021.021-.179-.042-.351-.139a7.18 7.18 0 0 1-2.273-2.144c-.298-.45-.71-1.22-.71-1.325 0-.029.203-.097.451-.15.362-.078.445-.115.424-.187l-.065-.249c-.031-.128-.061-.153-.157-.127-.327.087-.769.156-.837.13-.098-.038-.358-1.092-.432-1.754-.114-1.013-.021-2.203.244-3.116l.133-.46-.119-.045c-.369-.138-.356-.144-.457.205-.248.851-.324 1.429-.326 2.461-.002 1.043.064 1.584.293 2.409l.107.387-.683-.03c-1.53-.067-2.825-.637-3.104-1.366-.178-.467-.067-.884.508-1.905.382-.68.408-1.144.082-1.514-.201-.229-.528-.317-.93-.251-.506.083-1.106.058-1.449-.06-.656-.226-1.274-.798-1.63-1.51-.671-1.341-.45-3.5.567-5.534 1.458-2.916 4.045-4.7 7.223-4.981l.7-.057c.035 0 .172.228.305.507.301.634.335.664.588.527.108-.058.189-.118.18-.135-.529-1.018-.789-1.706-.98-2.593-.159-.739-.144-2.414.029-3.187.281-1.255.836-2.508 1.571-3.549.481-.68 1.79-2.004 2.484-2.513 2.764-2.026 6.158-3.04 11.519-3.441.865-.065 7.242-.451 7.447-.451h.121l-.135.464c-.126.432-.325 1.55-.284 1.592.01.01.123.035.25.056l.232.037.037-.329a8.74 8.74 0 0 1 .472-1.839c.749-1.871 2.454-3.377 4.614-4.074 1.129-.365 1.57-.425 3.118-.425 1.202 0 1.51.018 2.135.126 3.291.569 6.734 2.006 9.233 3.854 1.226.907 2.595 2.218 3.522 3.375 1.064 1.328 2.195 3.27 2.803 4.818.142.362.259.68.259.707s-.209.003-.465-.052c-.581-.126-1.698-.274-2.066-.274h-.278v.253.253h.323c.474 0 1.711.194 2.47.387 1.963.498 3.8 1.418 5.466 2.738a24.26 24.26 0 0 1 2.692 2.71c2.207 2.791 3.326 5.763 3.319 8.813-.003 1.176-.254 2.995-.414 2.993-.034 0-.302-.053-.596-.116-.569-.123-2.486-.216-2.89-.141-.201.038-.206.045-.19.261l.017.222 1.264.022c1.385.024 1.829.091 2.843.429 2.105.701 3.937 2.378 4.942 4.521 1.483 3.163 1.151 7.056-.886 10.395a15.67 15.67 0 0 1-3.738 4.102c-.971.716-2.112 1.377-2.378 1.377-.497 0-1.751.419-2.189.731l-.167.119v-1.24z" paint-order="fill markers stroke" stroke-width=".268" class="D"/><path d="M30.021 41.864l-.023.137" fill="none" class="C"/></g><defs ><path id="B" d="M53.479 57.257a.89.89 0 0 0-.461.139c-.138.086-.253.206-.343.342-.179.272-.251.6-.28.924a2.61 2.61 0 0 0 .023.714 1.56 1.56 0 0 0 .277.654c.144.19.345.341.575.406a.87.87 0 0 0 .69-.088c.181-.114.308-.299.386-.499s.11-.413.136-.625c.05-.415.074-.849-.075-1.24-.074-.196-.192-.377-.353-.51s-.367-.217-.576-.216z"/></defs></svg>